<?xml version="1.0" encoding="UTF-8"?>
<svg width="355px" height="390px" viewBox="0 0 355 390" version="1.1" xmlns="http://www.w3.org/2000/svg" xmlns:xlink="http://www.w3.org/1999/xlink">
    <title>Graphic/AL-Logo/White</title>
    <g id="Desktop" stroke="none" stroke-width="1" fill="none" fill-rule="evenodd">
        <g id="DT/Burger-Menu-Open" transform="translate(-829.000000, -180.000000)" fill="#FFFFFF">
            <g id="Graphic/AL-Logo/White" transform="translate(820.000000, 180.000000)">
                <path d="M300.799854,359.539348 C299.394555,359.496391 297.884934,359.453435 296.375312,359.422751 L290.349098,150.84334 C296.436678,149.253942 302.235835,147.406803 307.715885,145.32647 L314.889657,360.300296 C310.538755,359.962779 305.86261,359.698902 300.799854,359.539348 L300.799854,359.539348 Z M188.228707,150.7697 C195.132465,152.696616 202.4842,154.212374 210.204136,155.304702 L205.147517,364.368911 C197.900105,365.050081 190.640419,365.761936 183.399144,366.51061 L188.228707,150.7697 Z M274.350789,359.680492 C260.346899,360.140742 244.213583,361.134883 227.214996,362.472678 L232.204112,157.164114 C237.389602,157.329805 242.703961,157.292985 248.110371,157.041381 C255.081633,156.759094 261.856521,156.108606 268.422762,155.194242 L274.350789,359.680492 Z M153.513542,98.6693382 C152.691228,79.5535988 189.443768,56.5963015 243.569232,54.2029987 C297.694697,51.8281059 336.337333,71.4654625 337.214877,90.5443819 C338.037191,109.666258 301.229421,132.648102 247.128503,135.022995 C193.015312,137.397888 154.38495,117.766668 153.513542,98.6693382 L153.513542,98.6693382 Z M336.938727,362.810195 L329.470394,135.925086 C329.470394,135.483245 329.372208,135.108908 329.323114,134.679341 C348.622954,122.63305 359.994211,106.763611 359.251673,89.5870607 C357.692958,54.5650624 306.457867,29.3678792 242.587365,32.1539291 C203.196054,33.9028812 169.530261,45.8571221 149.892904,63.0091258 C149.862221,63.0091258 149.843811,63.0520825 149.843811,63.0520825 C149.481747,63.3589162 149.10741,63.6964333 148.751483,63.9909936 C122.320828,87.7031018 103.84944,92.7904045 78.7627165,91.0107691 C61.2547857,89.7588876 43.0840941,79.0933483 35.5359851,65.6540323 C32.8358486,60.8490166 31.6391972,55.8476273 31.8294341,50.6805478 C31.5901038,39.1497375 36.5853564,17.6713786 66.6611955,18.3402761 C87.6915771,18.7821166 90.2689802,35.0872593 82.4324475,45.2127713 C79.0511402,49.6004932 66.8882524,54.2766388 55.885196,51.2819419 C51.9024946,50.3062107 49.1532646,52.1901696 48.5518706,54.6202925 C48.0118433,56.8110851 48.5089139,59.2903014 51.4115607,60.7508298 C57.3579977,62.9907158 63.9549222,63.2852761 70.6684435,62.4997819 C80.9105524,61.3276771 90.9562877,56.0378642 95.5833398,49.7600467 C102.542328,40.2911588 102.088214,31.7918654 100.940656,26.4284123 C99.0873807,18.0457157 92.8341099,10.4914701 83.2977186,5.17097374 C73.0556097,-0.572953085 59.5978837,-1.57936761 46.4224447,2.39106044 C32.9647187,6.4535386 22.0230291,15.0203354 16.3343323,25.9804351 C7.53434186,42.8808352 7.53434186,60.8060599 16.2975123,76.4238951 C27.3557987,96.2330786 52.4241119,111.255656 77.191728,112.998472 C95.1905927,114.299447 112.680113,111.255656 131.648573,101.547438 C133.305475,118.208508 146.17408,132.531505 166.345327,142.479054 L161.307118,368.940733 C95.5833398,376.525662 40.5557844,386.301383 67.1644027,389.062887 C83.7518324,390.799565 228.356418,373.985079 349.402311,377.94937 C369.432415,378.605994 371.175231,368.394569 336.938727,362.810195 L336.938727,362.810195 Z" id="Fill-1"></path>
            </g>
        </g>
    </g>
</svg>