<?xml version="1.0" encoding="UTF-8"?>
<svg width="14px" height="83px" viewBox="0 0 14 83" version="1.1" xmlns="http://www.w3.org/2000/svg" xmlns:xlink="http://www.w3.org/1999/xlink">
    <title>Group 5</title>
    <g id="Mobile" stroke="none" stroke-width="1" fill="none" fill-rule="evenodd">
        <g id="M/Scroll" transform="translate(-181.000000, -108.000000)" fill="#2B3632">
            <g id="Timeline" transform="translate(0.000000, 88.000000)">
                <g id="Group-5" transform="translate(181.500000, 20.500000)">
                    <g id="Group" transform="translate(1.500000, -1.500000)">
                        <g id="Graphic/Arrow-Copy-5" transform="translate(5.000000, 6.500000) rotate(90.000000) translate(-5.000000, -6.500000) ">
                            <path d="M0,3.57457097 L0,9.42542903 C6.72236333e-16,10.5299985 0.8954305,11.425429 2,11.425429 C2.3693819,11.425429 2.73154795,11.3231331 3.0463451,11.1298826 L7.81174986,8.20445356 C8.75309357,7.62657312 9.04773876,6.39499861 8.46985832,5.4536549 C8.30529342,5.18558538 8.07981939,4.96011134 7.81174986,4.79554644 L3.0463451,1.87011741 C2.10500139,1.29223697 0.873426884,1.58688216 0.295546442,2.52822587 C0.102295972,2.84302301 6.78903668e-16,3.20518907 0,3.57457097 Z" id="Path-3"></path>
                        </g>
                    </g>
                    <g id="Group" transform="translate(1.500000, 70.500000)">
                        <g id="Graphic/Arrow-Copy-6" transform="translate(5.000000, 6.500000) scale(1, -1) rotate(90.000000) translate(-5.000000, -6.500000) ">
                            <path d="M0,3.57457097 L0,9.42542903 C6.72236333e-16,10.5299985 0.8954305,11.425429 2,11.425429 C2.3693819,11.425429 2.73154795,11.3231331 3.0463451,11.1298826 L7.81174986,8.20445356 C8.75309357,7.62657312 9.04773876,6.39499861 8.46985832,5.4536549 C8.30529342,5.18558538 8.07981939,4.96011134 7.81174986,4.79554644 L3.0463451,1.87011741 C2.10500139,1.29223697 0.873426884,1.58688216 0.295546442,2.52822587 C0.102295972,2.84302301 6.78903668e-16,3.20518907 0,3.57457097 Z" id="Path-3"></path>
                        </g>
                    </g>
                </g>
            </g>
        </g>
    </g>
</svg>