<?xml version="1.0" encoding="UTF-8"?>
<svg width="18px" height="18px" viewBox="0 0 18 18" version="1.1" xmlns="http://www.w3.org/2000/svg" xmlns:xlink="http://www.w3.org/1999/xlink">
    <title>Graphic/Spark</title>
    <defs>
        <polygon id="path-1" points="0 0 2.99558105 0 2.99558105 3.3635539 0 3.3635539"></polygon>
        <polygon id="path-3" points="0 0 3.36331524 0 3.36331524 2.99598391 0 2.99598391"></polygon>
        <polygon id="path-5" points="0 0 3.36343457 0 3.36343457 2.99598391 0 2.99598391"></polygon>
        <polygon id="path-7" points="0 0 2.99598391 0 2.99598391 3.36319591 0 3.36319591"></polygon>
    </defs>
    <g id="Symbols" stroke="none" stroke-width="1" fill="none" fill-rule="evenodd">
        <g id="Graphic/AL-Title/Mobile" transform="translate(-252.000000, -171.000000)">
            <g id="Graphic/Spark" transform="translate(252.849485, 171.657732)">
                <g id="Group-3" transform="translate(0.920113, 13.213766)">
                    <mask id="mask-2" fill="white">
                        <use xlink:href="#path-1"></use>
                    </mask>
                    <g id="Clip-2"></g>
                    <path d="M2.99558105,0 C-1.71198631,3.79707968 -0.215588476,5.12402896 2.99558105,0" id="Fill-1" fill="#F8D614" mask="url(#mask-2)"></path>
                </g>
                <g id="Group-6" transform="translate(0.000000, 0.919590)">
                    <mask id="mask-4" fill="white">
                        <use xlink:href="#path-3"></use>
                    </mask>
                    <g id="Clip-5"></g>
                    <path d="M3.36331524,2.99598391 C-0.433764445,-1.71158346 -1.76071372,-0.216378917 3.36331524,2.99598391" id="Fill-4" fill="#F8D614" mask="url(#mask-4)"></path>
                </g>
                <path d="M12.1755949,8.0577563 C11.5884915,7.84296235 11.025254,7.6281684 10.4858826,7.41456776 C11.2579475,5.76423425 11.9966,4.42535198 12.6612679,3.36331524 C11.6863421,4.14969975 10.4441171,5.04109463 8.89640734,6.0028942 C8.6207551,5.49335522 8.34032967,4.95995025 8.05751764,4.40148598 C7.84272369,4.98978274 7.62792974,5.55182691 7.4155224,6.09119838 C5.76399559,5.31913346 4.42511332,4.58048094 3.36307658,3.915813 C4.14946109,4.89073887 5.04085597,6.13415717 6.00384884,7.68067359 C5.49311656,7.95751912 4.95971159,8.23675126 4.40124732,8.51956329 C4.99073738,8.73435724 5.55158825,8.94915118 6.09095972,9.16275183 C5.3200881,10.8130853 4.58143558,12.1519676 3.91557434,13.2140044 C4.89169351,12.4276198 6.13511181,11.536225 7.68043493,10.5732321 C7.95728046,11.0839644 8.2365126,11.6173693 8.52051793,12.1758336 C8.73411858,11.5875368 8.94891252,11.0254927 9.16251317,10.4861212 C10.8128467,11.2581861 12.1517289,11.9956453 13.2137657,12.6615066 C12.4273812,11.6865807 11.5359863,10.4431624 10.5741867,8.896646 C11.0837257,8.61980046 11.6171307,8.34056833 12.1755949,8.0577563" id="Fill-7" fill="#F8D614"></path>
                <g id="Group-11" transform="translate(13.213885, 12.661387)">
                    <mask id="mask-6" fill="white">
                        <use xlink:href="#path-5"></use>
                    </mask>
                    <g id="Clip-10"></g>
                    <path d="M0,0 C3.79707968,4.70756736 5.12402896,3.21236282 0,0" id="Fill-9" fill="#F8D614" mask="url(#mask-6)"></path>
                </g>
                <g id="Group-14" transform="translate(12.661507, 0.000000)">
                    <mask id="mask-8" fill="white">
                        <use xlink:href="#path-7"></use>
                    </mask>
                    <g id="Clip-13"></g>
                    <path d="M0,3.36319591 C4.70756736,-0.432690475 3.21236282,-1.76083305 0,3.36319591" id="Fill-12" fill="#F8D614" mask="url(#mask-8)"></path>
                </g>
                <path d="M9.37062464,8.22446027 C9.40523033,8.82111012 8.94938984,9.3354223 8.35273999,9.37002799 C7.75489683,9.40582698 7.24297126,8.94998649 7.20717227,8.35214334 C7.17137327,7.75549348 7.62721376,7.24237461 8.22505692,7.20657562 C8.82170677,7.17196992 9.33482565,7.62781041 9.37062464,8.22446027" id="Fill-15" fill="#FFFFFF"></path>
            </g>
        </g>
    </g>
</svg>