<?xml version="1.0" encoding="UTF-8"?>
<svg width="32px" height="32px" viewBox="0 0 32 32" version="1.1" xmlns="http://www.w3.org/2000/svg" xmlns:xlink="http://www.w3.org/1999/xlink">
    <title>Graphic/Spark</title>
    <defs>
        <polygon id="path-1" points="0 0 5.66328755 0 5.66328755 6.35895761 0 6.35895761"></polygon>
        <polygon id="path-3" points="0 0 6.35850642 0 6.35850642 5.66404917 0 5.66404917"></polygon>
        <polygon id="path-5" points="0 0 6.35873202 0 6.35873202 5.66404917 0 5.66404917"></polygon>
        <polygon id="path-7" points="0 0 5.66404917 0 5.66404917 6.35828082 0 6.35828082"></polygon>
    </defs>
    <g id="Symbols" stroke="none" stroke-width="1" fill="none" fill-rule="evenodd">
        <g id="Graphic/AL-Title/Desktop" transform="translate(-567.000000, -155.000000)">
            <g id="Graphic/Spark" transform="translate(567.257732, 155.134021)">
                <g id="Group-3" transform="translate(1.739516, 24.981249)">
                    <mask id="mask-2" fill="white">
                        <use xlink:href="#path-1"></use>
                    </mask>
                    <g id="Clip-2"></g>
                    <path d="M5.66328755,0 C-3.23659104,7.1785586 -0.407580204,9.68721893 5.66328755,0" id="Fill-1" fill="#F8D614" mask="url(#mask-2)"></path>
                </g>
                <g id="Group-6" transform="translate(0.000000, 1.738529)">
                    <mask id="mask-4" fill="white">
                        <use xlink:href="#path-3"></use>
                    </mask>
                    <g id="Clip-5"></g>
                    <path d="M6.35850642,5.66404917 C-0.820052185,-3.23582942 -3.32871251,-0.40907457 6.35850642,5.66404917" id="Fill-4" fill="#F8D614" mask="url(#mask-4)"></path>
                </g>
                <path d="M23.0185377,15.2335691 C21.9085909,14.827491 20.8437638,14.4214129 19.8240566,14.0175908 C21.2836818,10.8975573 22.6801393,8.36633707 23.9367254,6.35850642 C22.093582,7.8452035 19.7450969,9.53042766 16.8190785,11.3487552 C16.297945,10.3854477 15.7677874,9.37702037 15.2331179,8.32121728 C14.8270398,9.43342011 14.4209617,10.4959912 14.0193956,11.5156984 C10.8971061,10.0560732 8.36588588,8.65961571 6.35805522,7.40302956 C7.8447523,9.24617298 9.52997646,11.596914 11.35056,14.5206764 C10.3849965,15.044066 9.37656917,15.5719675 8.32076609,16.1066371 C9.4352249,16.5127152 10.49554,16.9187933 11.5152472,17.3226154 C10.057878,20.4426489 8.6614205,22.9738691 7.40257836,24.9816998 C9.24797777,23.4950027 11.5987188,21.8097785 14.5202252,19.989195 C15.0436148,20.9547585 15.5715164,21.9631858 16.1084419,23.0189889 C16.512264,21.9067861 16.9183421,20.844215 17.3221642,19.8245078 C20.4421977,21.284133 22.9734179,22.6783345 24.9812486,23.9371766 C23.4945515,22.0940332 21.8093273,19.7432921 19.9909998,16.8195297 C20.9543073,16.2961402 21.9627346,15.7682386 23.0185377,15.2335691" id="Fill-7" fill="#F8D614"></path>
                <g id="Group-11" transform="translate(24.981474, 23.936951)">
                    <mask id="mask-6" fill="white">
                        <use xlink:href="#path-5"></use>
                    </mask>
                    <g id="Clip-10"></g>
                    <path d="M0,0 C7.1785586,8.89987859 9.68721893,6.07312374 0,0" id="Fill-9" fill="#F8D614" mask="url(#mask-6)"></path>
                </g>
                <g id="Group-14" transform="translate(23.937177, 0.000000)">
                    <mask id="mask-8" fill="white">
                        <use xlink:href="#path-7"></use>
                    </mask>
                    <g id="Clip-13"></g>
                    <path d="M0,6.35828082 C8.89987859,-0.818021794 6.07312374,-3.32893811 0,6.35828082" id="Fill-12" fill="#F8D614" mask="url(#mask-8)"></path>
                </g>
                <path d="M17.7156088,15.5487309 C17.7810325,16.6767256 16.9192445,17.6490571 15.7912497,17.7144808 C14.660999,17.7821605 13.6931795,16.9203725 13.6254998,15.7901217 C13.5578201,14.662127 14.4196081,13.6920515 15.5498589,13.6243718 C16.6778536,13.5589481 17.6479291,14.4207361 17.7156088,15.5487309" id="Fill-15" fill="#FFFFFF"></path>
            </g>
        </g>
    </g>
</svg>