<?xml version="1.0" encoding="UTF-8"?>
<svg width="350px" height="226px" viewBox="0 0 350 226" version="1.1" xmlns="http://www.w3.org/2000/svg" xmlns:xlink="http://www.w3.org/1999/xlink">
    <title>Grapic/Stars/Home/Mobile</title>
    <g id="Mobile" stroke="none" stroke-width="1" fill="none" fill-rule="evenodd">
        <g id="M/Landing" transform="translate(-12.000000, -420.000000)">
            <g id="Grapic/Stars/Home/Mobile" transform="translate(12.000000, 420.000000)">
                <polygon id="Fill-2" fill="#7EC8BA" points="20.6575924 121.554539 18.4795357 129.716108 23.1861199 136.124158 14.6702302 136.36083 11.393053 144.950916 8.72140137 136.531161 0 135.584477 5.5763389 128.945134 3.17992606 119.655791 12.2426236 125.222942"></polygon>
                <polygon id="Fill-3" fill="#7EC8BA" points="101.699089 23.5735459 104.066682 26.8720406 108.634764 27.8666315 104.902199 31.5337509 106.606655 36.7710025 101.458108 32.611804 97.306905 36.0685292 98.5909636 31.0920969 94.2814519 27.7118788 100.360502 26.7346758"></polygon>
                <polygon id="Fill-5" fill="#7EC8BA" points="169.623687 -5.67400083e-14 172.379939 4.4424841 179.75112 4.95822317 175.005039 10.1135174 177.429311 16.9690733 169.982307 11.9269901 162.002496 16.5183257 163.969784 10.2036669 160.094637 5.1552942 167.099001 4.83662615"></polygon>
                <polygon id="Fill-6" fill="#7EC8BA" points="54.5667424 213.500529 49.653904 213.167453 51.1067969 217.942113 47.4763407 222.87816 53.7159653 220.477953 57.0231617 225.235444 58.2664686 220.809312 65.1419558 219.502762 58.6288037 216.793516 59.6696292 209.838411"></polygon>
                <g id="Graphic/Star/3" transform="translate(240.979138, 10.627620)" fill="#7EC8BA">
                    <polygon id="Fill-9" points="7.86202522 0 16.4523435 9.11023119 26.8052323 5.07742212 19.6158667 15.2297553 29.2404624 23.67957 18.3565266 22.8358441 11.7361399 32.192162 9.27056431 21.0529709 0 17.4596024 9.04803031 12.3018254"></polygon>
                </g>
                <polygon id="Fill-10" fill="#7EC8BA" points="341.587236 75.6642691 343.663669 82.5784438 350 83.5034113 346.321646 87.5965207 346.997735 93.260878 342.645075 89.8995359 336.597732 92.7035038 339.141541 87.3810939 333.438486 83.5854787 339.013101 82.6707696"></polygon>
                <polygon id="Fill-11" points="193.076037 211.774652 199.497695 212.138069 204.315348 206.946136 205.940014 213.818188 214.053955 217.361047 205.528682 219.764348 205.136133 226.742321 199.897758 222.516456 193.864892 222.994925 196.533853 217.443227"></polygon>
                <polygon id="Fill-13" fill="#7EC8BA" points="298.134026 215.595163 291.48265 215.206472 297.531695 218.968711 296.392244 223.332323 300.843655 221.478705 304.751081 225.235444 303.846727 219.498579 308.044164 215.320146 301.391072 215.983854 299.925573 210.9382"></polygon>
                <polygon id="Fill-15" fill="#7EC8BA" points="268.183352 168.666107 267.268931 174.803247 271.608833 179.947166 264.759672 180.507537 262.626622 184.543286 259.921158 178.670167 253.943218 178.246296 257.105892 174.25006 256.799885 168.046466 262.318814 170.71182"></polygon>
                <polygon id="Fill-16" fill="#7EC8BA" points="333.171024 131.75346 334.939108 136.050846 341.167192 135.883021 335.596517 139.378776 337.30405 144.434944 333.171024 141.20878 328.674693 144.950916 330.710931 139.389488 324.605678 135.693772 330.811272 135.186727"></polygon>
                <polygon id="Fill-17" points="158.27626 169.146254 160.159781 173.79669 167.823344 173.263772 161.361367 177.545126 163.486585 183.974359 158.27626 181.713055 152.672312 184.543286 153.689171 178.052839 151.26183 174.120763 156.5274 173.506826"></polygon>
            </g>
        </g>
    </g>
</svg>