<?xml version="1.0" encoding="UTF-8"?>
<svg width="527px" height="38px" viewBox="0 0 527 38" version="1.1" xmlns="http://www.w3.org/2000/svg" xmlns:xlink="http://www.w3.org/1999/xlink">
    <title>Graphic/Stars/Desktop/Year/Top</title>
    <g id="Graphic/Stars/Desktop/Year/Top" stroke="none" stroke-width="1" fill="none" fill-rule="evenodd">
        <polygon id="Fill-1" fill="#7EC8BA" points="518.208999 0 515.328551 4.8690516 510 6.197147 513.746984 10.4182548 513.841213 15.0959545 518.208999 11.9092834 523.925552 17 522.593414 10.3936253 527 6.00390059 527 6.00200602 521.076513 4.88610275"></polygon>
        <polygon id="Fill-1" fill="#7EC8BA" points="184.029334 0.798 181.751186 6.33531726 173.305687 5.87314747 180.99035 10.3466022 179.542799 15.5351121 185.195659 13.3332655 190.161804 17.798 189.01292 10.9766355 194.345313 6.00831034 185.893274 6.795307"></polygon>
        <polygon id="Fill-3" fill="#7EC8BA" points="2.14171833 33.130936 0 33.4249245 1.66164748 34.9813341 0.692648361 38 3.03985828 35.9651386 5.30912312 37.8847104 4.91762622 35.1581114 6 33.4518254 4.14348981 32.9503157 3.18689105 31"></polygon>
    </g>
</svg>