<?xml version="1.0" encoding="UTF-8"?>
<svg width="1254px" height="84px" viewBox="0 0 1254 84" version="1.1" xmlns="http://www.w3.org/2000/svg" xmlns:xlink="http://www.w3.org/1999/xlink">
    <title>Graph/Stars/Desktop/Year/Bottom</title>
    <g id="Graph/Stars/Desktop/Year/Bottom" stroke="none" stroke-width="1" fill="none" fill-rule="evenodd">
        <polygon id="Fill-1" fill="#7EC8BA" points="19.3296524 63 22.5430675 67.9903569 29 69.9623223 23.4649489 74.4653544 25.7564826 82 19.6043354 77.6159658 13.3223722 81.4182324 13.5707157 74.0460284 6 68.7685655 16.9741513 68.4550154"></polygon>
        <polygon id="Fill-2" fill="#7EC8BA" points="6.0976824 0 5.05339056 5.67483706 0 5.3819779 2.70987124 8.38792859 1.86386266 13 6.0976824 10.2574384 10.2975107 12.9502692 8.86042918 8.18900538 11 5.7614055 7.65751073 5.21805044"></polygon>
        <polygon id="Fill-3" fill="#7EC8BA" points="458.833078 66 461.193418 68.918867 466 69.8233317 461.378887 72.9284686 463.178915 78 458.833078 74.8545367 455.588342 76.506001 456.658207 72.1411426 452 69.9327892 456.787059 69.3413346"></polygon>
        <polygon id="Fill-4" fill="#7EC8BA" points="1244.78706 75.3399488 1240 75.9314981 1244.65625 78.1402049 1243.58639 82.5057618 1246.83308 80.8540333 1251.17696 84 1249.37889 78.9276569 1254 75.8239437 1249.19537 74.915493 1246.83308 72"></polygon>
        <polygon id="Fill-5" fill="#7EC8BA" points="960.426272 60 963.535385 66.4562198 969 67.9174812 965.559527 72.2734849 965.330414 77.2443667 960.426272 74.460747 954.961657 78 957.495148 71.5734129 953 68.2823336 958.207101 67.5174401"></polygon>
        <polygon id="Fill-6" fill="#7EC8BA" points="780.122581 33 783.986681 39.9397016 794 40.6525117 785.368991 46.1394014 786.316753 54.1667697 780.122581 49.6121656 773.34589 55 773.96025 47.4038139 767 40.906948 777.532154 41.8994438"></polygon>
        <polygon id="Fill-7" fill="#7EC8BA" points="621.755388 57 624.735888 65.8099032 633 66.2568502 624.974855 70.9264168 628.858536 79.6054151 621.755388 75.6932271 614.36247 80 616.157544 71.6950159 611 66.4139361 618.731611 65.697699"></polygon>
        <polygon id="Fill-8" fill="#7EC8BA" points="101.856527 59 103.731366 68.2995239 111 67.9089673 107.002154 72.5606723 107.736967 79 103.006247 75.177985 96.4336493 78.3665598 99.196467 72.3158457 93 68.0041776 99.0588109 66.9626931"></polygon>
    </g>
</svg>