<?xml version="1.0" encoding="UTF-8"?>
<svg width="693px" height="290px" viewBox="0 0 693 290" version="1.1" xmlns="http://www.w3.org/2000/svg" xmlns:xlink="http://www.w3.org/1999/xlink">
    <title>Grapic/Stars</title>
    <g id="Desktop" stroke="none" stroke-width="1" fill="none" fill-rule="evenodd">
        <g id="DT/Landing" transform="translate(-397.000000, -481.000000)" fill="#7EC8BA">
            <g id="Grapic/Stars" transform="translate(350.080000, 481.125000)">
                <polygon id="Fill-2" points="206.236431 158.167632 203.4821 168.488607 209.433962 176.592114 198.66492 176.891404 194.52066 187.754275 191.142137 177.106802 180.113208 175.909642 187.164947 167.513647 184.134485 155.766509 195.595012 162.806629"></polygon>
                <polygon id="Fill-3" points="155.983985 111.261792 158.978001 115.43301 164.754717 116.690752 160.034582 121.328126 162.190006 127.951061 155.679245 122.691413 150.429708 127.062726 152.053505 120.769618 146.603774 116.495055 154.291232 115.259301"></polygon>
                <polygon id="Fill-4" points="159.459467 233.649764 162.035308 242.583838 167.54717 243.511479 164.019578 247.668198 166.388042 255.818193 159.459467 251.208697 152.471955 255.902123 153.866838 248.008333 149.396226 242.86213 157.73933 243.363498"></polygon>
                <polygon id="Fill-5" points="392.718956 20.8615861 395.65566 25.5949203 403.509434 26.1444249 398.452626 31.6372371 401.035615 38.9416274 393.101055 33.5694382 384.598805 38.4613693 386.694891 31.7332887 382.566038 26.3543982 390.028979 26.0148669"></polygon>
                <polygon id="Fill-6" points="249.117339 274.440895 242.904651 274.019694 244.741954 280.057643 240.150943 286.299681 248.041462 283.264422 252.223683 289.28066 253.795947 283.683453 262.490566 282.031213 254.25415 278.605148 255.570359 269.809847"></polygon>
                <polygon id="Fill-7" points="677.169811 119.979014 670.865458 119.286508 667.273958 123.778744 666.122627 118.544214 659.018868 117.195412 665.311568 114.47065 664.794168 108.480248 669.024261 113.092427 674.335766 110.157198 672.641398 115.559197"></polygon>
                <polygon id="Fill-8" points="719.949373 157.126349 709.283019 154.036084 714.194974 164.582632 710.019582 172.698949 720.16804 169.99351 725.10071 178.018868 727.704001 168.67111 740 166.749315 728.981477 161.142526 727.777657 151.594192"></polygon>
                <g id="Graphic/Star/3" transform="translate(484.851138, 17.891423)">
                    <polygon id="Fill-9" points="9.94217723 0 20.805341 11.5206363 33.8974199 6.42081769 24.8058761 19.2592776 36.9769686 29.944763 23.2133369 28.8778022 14.8413138 40.7096354 11.7233907 26.6232124 0 22.0791026 11.4419782 15.5566696"></polygon>
                </g>
                <polygon id="Fill-10" points="612.078349 100.135613 614.704169 108.879156 622.716981 110.048853 618.0654 115.224926 618.92037 122.387972 613.416074 118.137278 605.768711 121.683126 608.985567 114.952501 601.773585 110.152634 608.823145 108.995909"></polygon>
                <polygon id="Fill-11" points="277.849057 45.0476827 285.969771 45.5072535 292.062089 38.9416274 294.116613 47.6319021 304.377358 52.1121394 293.59645 55.1513107 293.100039 63.9755307 286.475683 58.6315775 278.846629 59.2366405 282.221749 52.2160624"></polygon>
                <polygon id="Fill-12" points="612.416958 0 607.552081 9.31071285 597.584906 10.5943076 605.317114 17.4029408 600.808371 30.5969929 611.734368 21.6955422 622.299666 30.090066 620.471056 18.1703072 625.509434 10.7175513 616.861779 8.52706894 612.419241 0"></polygon>
                <polygon id="Fill-13" points="557.128193 277.089732 548.716981 276.5982 556.366496 281.355862 554.925566 286.874007 560.554742 284.529954 565.496003 289.28066 564.352373 282.025922 569.660377 276.74195 561.246996 277.581265 559.393751 271.200619"></polygon>
                <polygon id="Fill-14" points="214.017844 15.2984965 219.443048 26.7734214 228.981132 29.3695165 222.974986 37.11169 222.572262 45.9421024 214.017844 40.9966104 204.482074 47.2862618 208.905097 35.8666711 201.056604 30.0173875 210.143359 28.657089"></polygon>
                <polygon id="Fill-14-Copy" points="60.213922 76.0016215 65.6391267 87.4765464 75.1772105 90.0726415 69.1710646 97.814815 68.7683403 106.645227 60.213922 101.699735 50.6781527 107.989387 55.1011758 96.5697961 47.2526822 90.7205125 56.3394371 89.360214"></polygon>
                <polygon id="Fill-15" points="519.253104 217.744082 518.096743 225.505001 523.584906 232.009909 514.923579 232.718545 512.226161 237.822081 508.80488 230.395039 501.245283 229.85902 505.244745 224.805451 504.857773 216.960495 511.836914 220.331055"></polygon>
                <polygon id="Fill-16" points="601.435358 171.065006 603.671245 176.499404 611.54717 176.287176 604.502593 180.707845 606.661909 187.101786 601.435358 183.022036 595.749378 187.754275 598.324367 180.721392 590.603774 176.047854 598.451257 175.406654"></polygon>
            </g>
        </g>
    </g>
</svg>