<?xml version="1.0" encoding="UTF-8"?>
<svg width="240px" height="62px" viewBox="0 0 240 62" version="1.1" xmlns="http://www.w3.org/2000/svg" xmlns:xlink="http://www.w3.org/1999/xlink">
    <title>Group 3</title>
    <g id="Symbols" stroke="none" stroke-width="1" fill="none" fill-rule="evenodd">
        <g id="Btn/Start/Off" transform="translate(0.000000, -44.000000)">
            <g id="Group" transform="translate(0.000000, 0.000000)">
                <g id="Group-3" transform="translate(0.000000, 44.000000)">
                    <polygon id="Bar" fill="#2B3632" points="0 29.8208403 15.6729241 62 222.446066 47.5017448 240 0"></polygon>
                    <polygon id="Fill-27" fill="#FEFCEA" points="32.2792426 51.801026 31.8741684 51.7274637 31.538043 51.5998116 31.322578 51.6236111 31.2256188 51.6106295 30.9131945 51.5024497 30.4111611 51.3228713 30.0987368 51.190892 29.906973 51.0718942 29.5967034 50.9161153 29.3812384 50.773318 29.1657734 50.6802834 28.9998653 50.5331588 28.7563899 50.3708892 28.564626 50.1783291 28.5904818 50.0831309 28.5430795 49.970624 28.5430795 49.8516262 28.614183 49.7477736 28.7563899 49.6157942 28.8533491 49.4881421 28.8533491 49.3691443 28.9029061 49.2912549 29.0709688 49.1095128 29.1399176 49.0792225 29.1657734 48.9342616 29.2627326 48.8282454 29.2842791 48.7330472 29.3338361 48.6551577 29.5255999 48.4690885 29.6204045 48.2224386 29.7410649 48.1618579 29.8100137 47.9411711 29.906973 47.7442839 30.0276334 47.6577401 30.0534892 47.5149428 30.0987368 47.4630165 30.1698403 47.3115648 30.3616041 47.2682929 30.4844192 47.3483459 30.553368 47.4110902 30.5770691 47.385127 30.5296668 47.3418551 30.5059657 47.2531477 30.6503272 47.1644403 31.1308142 47.4197446 31.7276522 47.7529383 32.184438 47.9649707 32.6132134 47.9887702 33.1195561 47.9563163 33.7400953 47.6534129 34.123623 47.3764726 34.4597484 46.796629 34.7226157 45.9852806 34.6989146 45.5157803 34.60411 45.3383654 34.4812949 45.0917155 34.388645 44.8191025 34.2938404 44.7109227 34.1710253 44.5832705 34.0051173 44.5075447 33.8844569 44.4036921 33.7163942 44.2089685 33.5504861 44.0380444 33.3565676 43.8952471 33.2380619 43.7675949 33.0699992 43.6659059 32.3266449 43.1336614 31.8483126 42.6922878 31.5143419 42.3504397 30.8399364 41.6451075 30.3616041 40.8705402 30.2193972 40.5070561 30.0771903 39.9575028 30.0276334 39.3019333 30.0534892 38.425677 30.1461391 38.0383934 30.4585634 37.4131142 30.6503272 37.0864112 30.8183899 36.8311069 30.9368957 36.6536921 31.2730211 36.2620812 31.5854453 35.9202331 31.8957149 35.6259841 32.2792426 35.3014447 32.7597296 34.9422878 33.3824234 34.6610204 33.7163942 34.4836055 34.2442834 34.2607552 35.250505 34.031414 36.3752323 33.9556882 37.0474831 33.951361 37.2844946 33.9729969 37.4310108 34.0292504 37.454712 34.1201214 37.3814539 34.1525754 37.3340516 34.2045017 37.4073097 34.2910455 37.5279701 34.3234994 37.5021143 34.5160595 37.4310108 34.641548 37.5279701 34.9617602 37.4310108 34.9725782 37.4784131 35.037486 37.5021143 35.1521566 37.5021143 35.342553 37.5732177 35.476696 37.5732177 35.545931 37.4784131 35.5805486 37.454712 35.6779104 37.5969189 35.8033989 37.5279701 35.883452 37.5969189 35.9440327 37.5732177 36.0673576 37.5732177 36.1841918 37.454712 36.2447725 37.454712 36.290208 37.5279701 36.3551159 37.670177 36.4092058 37.7412804 36.4741136 37.7412804 36.5195491 37.670177 36.5520031 37.5473619 36.6125838 37.5732177 36.7964894 37.5732177 36.9868858 37.5021143 37.0885748 37.5021143 37.3482063 37.4310108 37.6619277 37.3577527 37.7657803 37.18969 37.6662549 36.6165531 37.5624023 36.1834684 37.5407663 35.250505 37.6446189 34.6752134 37.895596 34.5071507 38.0557021 34.3153869 38.2179718 34.0999219 38.4776033 34.0051173 39.0055207 34.2938404 39.4490578 34.7937192 39.8644682 35.4401142 40.4075307 35.847343 40.7147613 36.2308707 41.0739182 36.9031215 41.6624162 37.5732177 42.391548 38.1722104 43.1293342 38.3639743 43.510127 38.6763985 44.3474386 38.8444612 45.1782594 38.8918635 45.7407942 38.8444612 46.3379467 38.5557381 47.2639657 38.316572 47.7875558 37.8123839 48.6919389 37.3814539 49.2112018 37.1185865 49.4535246 36.9505238 49.6850293 36.2567265 50.3514168 35.7999407 50.682447 35.2979073 50.9983319 34.6989146 51.2752722 34.2184276 51.4699958 33.8370546 51.5846664 32.9730399 51.7490997"></polygon>
                    <polygon id="Fill-28" fill="#FEFCEA" points="48.3535781 50.1064978 48.2329177 49.9572097 48.2329177 48.9403197 48.2070619 48.3301857 48.1855154 47.7892867 48.1855154 47.151026 48.2329177 46.9584659 48.1122573 46.4759841 48.1122573 46.0497557 48.1359584 45.6235274 48.1855154 44.8381421 48.2070619 44.1998814 48.1596596 43.5205123 48.1359584 43.0986111 48.1855154 42.5728573 48.1855154 42.1942281 47.7761319 41.5538037 47.4421611 41.0951214 47.2266961 40.8614531 46.4596407 39.8099456 46.2441757 39.5286781 46.1235153 39.4226619 45.910205 39.1392309 45.4534192 38.5745324 45.0224892 38.0098339 44.6863638 37.527352 44.3502384 37.0686697 44.1606292 36.7809115 43.8740607 36.3655011 43.5853376 35.9262912 43.4409761 35.6818049 43.2492122 35.3248116 43.2255111 35.0457077 43.3935738 34.9072376 43.5357807 34.8206937 43.7038434 34.7081868 43.8740607 34.712514 43.9451642 34.5870254 44.1843303 34.4420645 44.3760942 34.3511935 44.4730534 34.2451773 44.6131057 34.2062326 44.6626626 34.1781058 44.7100649 34.1261795 44.8307253 34.0893984 44.9729322 34.0266541 45.0461903 33.9228015 45.1668507 33.8643844 45.26381 33.8059673 45.3327588 33.7497138 45.4534192 33.6436977 45.5245226 33.6826424 45.5977807 33.5787898 45.7636888 33.4208473 46.0050096 33.3451214 46.2204746 33.1806882 46.4100838 33.1114531 46.6535592 33.4403197 46.98753 34.0179997 47.3473565 34.4961544 47.7761319 35.1344151 48.1359584 35.6601689 48.4246815 36.0301438 49.357645 37.2049763 49.4783054 37.4754257 49.7670285 37.8670366 50.00404 38.2651382 50.0535969 38.3062465 50.1009992 38.2781198 50.2453608 37.9319444 50.4845269 37.3629188 50.6051873 37.040543 50.77325 36.7657663 51.0102615 36.2897753 51.1072208 35.9717267 51.20418 35.7510399 51.2515823 35.5779523 51.3959439 35.493572 51.5144496 35.290194 51.5381508 35.075998 51.7536158 34.578371 52.0423389 33.957419 52.1845458 33.7302415 52.3547631 33.3321399 52.5443723 32.9124023 52.5702281 32.7912409 52.6671874 32.6376256 52.7102804 32.4450656 52.8072396 32.3174135 52.9041989 32.2351968 53.0701069 32.2633236 53.2877266 32.2633236 53.5010369 32.3325586 53.7186566 32.3585218 53.9578227 32.4277568 54.1237308 32.5229551 54.22069 32.4667016 54.3672062 32.5229551 54.5331143 32.5272822 54.5331143 32.64628 54.65162 32.6808975 54.8218374 32.6138261 54.867085 32.6787339 55.0114466 32.6635888 55.132107 32.6982063 55.2269116 32.6873883 55.298015 32.7501326 55.4208301 32.737151 55.7073985 32.7760958 56.0413693 32.8107133 56.2331331 32.860476 56.2331331 32.9080751 56.1857308 33.0551996 55.8754612 33.6545156 55.5393358 34.4009562 55.2764685 34.9245463 54.9877454 35.5454983 54.3672062 36.8436558 54.0073797 37.6138959 53.623852 38.4814978 53.3114277 39.2474107 52.8567966 40.2167016 52.6176304 40.7402917 52.2578039 41.60573 52.0897412 42.0254676 52.0423389 42.1011935 51.8979773 42.3759701 51.850575 42.7827261 51.8268739 43.2587172 51.8268739 43.9900126 51.7536158 44.870596 51.7299146 45.4893844 51.6825123 45.8701773 51.7040588 46.5538735 51.7040588 47.0255374 51.6825123 47.830395 51.6825123 48.7023241 51.6566565 49.3903476 51.6566565 49.6045436 51.4907485 49.6910874 51.3226858 49.7343593 51.2278812 49.7927764 50.9865604 49.7689768 50.7473942 49.8685022 50.4845269 49.8511935 50.4134235 49.9507189 50.2927631 49.9875 50.1979585 49.9528825 50.1247004 49.9139377 50.0298958 49.9701912 49.9566377 49.9550461 49.8381319 49.9204285 49.7411727 50.0026452 49.5989658 50.0415899 49.357645 50.067553 49.2628404 50.009136 49.1895823 50.0156267 48.9978184 50.1064978 48.7608069 50.1324609 48.5194861 50.1822236"></polygon>
                    <path d="M66.2423443,44.6741415 L66.6991301,44.5767797 L67.4640308,44.3972013 L68.0630235,44.0964615 L68.6857174,43.7675949 L69.0929462,43.4149288 L69.3321124,43.1314978 L69.5238762,42.8264308 L69.7393412,42.424002 L70.0517655,41.4914922 L70.3383339,40.4464754 L70.411592,39.4706937 L70.3857362,38.8843593 L70.3383339,38.629055 L70.3167874,38.1119556 L70.196127,37.4174414 L70.1228689,37.1188652 L70.0517655,36.889524 L69.7888982,36.257754 L69.1899055,35.5697306 L67.9682189,34.7107831 L67.6557947,34.6026033 L67.4424843,34.6264028 L67.22271,34.5809673 L66.625872,34.5744765 L65.7403108,34.6026033 L65.2102669,34.6610204 L65.1391635,34.7151103 L65.117617,34.7886725 L65.0917612,35.4031337 L65.06806,36.3053532 L65.06806,37.6251466 L65.0443589,38.3845687 L65.0228124,39.4468942 L64.9969566,40.0656826 L64.9473996,40.2128071 L64.9732554,40.4464754 L64.9732554,41.1301717 L64.9473996,41.6991974 L64.9258531,41.8895938 L64.852595,42.0150824 L64.852595,42.1340801 L64.8288939,42.5862716 L64.8288939,42.9627373 L64.8051927,43.226696 L64.852595,43.4322376 L64.8288939,43.5533989 L64.7793369,43.7719221 L64.7793369,44.243586 L64.8762962,44.6330332 L64.8762962,44.752031 L64.902152,44.8212661 L64.9473996,44.8407384 L65.3567831,44.8407384 L66.2423443,44.6741415 Z M62.6225323,48.3046552 L62.6225323,48.1618579 L62.4092219,48.1640215 L62.1463546,48.1207496 L61.6658677,48.1726759 L61.4288562,48.129404 L61.3792992,47.8286642 L61.4288562,47.5409059 L61.5258154,47.3396915 L61.4999596,47.2228573 L61.4504027,47.181749 L61.4999596,46.9177903 L61.4288562,46.6430137 L61.4288562,46.3595826 L61.4030004,46.2189489 L61.4762585,46.0934604 L61.4288562,45.9355179 L61.4504027,45.6953587 L61.4030004,45.463854 L61.4288562,45.3686558 L61.3534434,45.0917155 L61.3318969,44.5291806 L61.3081957,44.131079 L61.3081957,43.5880165 L61.2823399,42.8567211 L61.2823399,42.1016262 L61.2586388,41.679725 L61.2823399,40.9917016 L61.2823399,39.4339126 L61.3081957,38.912486 L61.3081957,37.4022962 L61.3318969,36.3140075 L61.3318969,35.6757468 L61.4030004,34.5355318 L61.4999596,33.5813861 L61.4999596,32.8241276 L61.5258154,32.5385329 L61.5258154,31.9500349 L61.6184654,31.6795854 L62.0019931,31.5670784 L62.2411592,31.5627513 L62.4092219,31.5216429 L62.6009858,31.478371 L62.8660077,31.376682 L63.0793181,31.3528825 L63.128875,31.3939908 L63.2258343,31.3615369 L63.3206389,31.3745184 L63.4154435,31.3399009 L63.5856608,31.274993 L63.7989712,31.2511935 L64.1824989,31.1365229 L64.3742627,31.1386865 L64.5164696,31.0759422 L64.6629858,31.060797 L64.852595,31.0629606 L64.9473996,31.0543063 L65.4041854,30.9569444 L65.8114143,30.9115089 L67.2485658,30.799002 L67.6320935,30.7816932 L68.2763339,30.7838568 L68.8796359,30.857419 L69.4290716,31.0110343 L69.8363005,31.2014308 L70.196127,31.4221175 L70.627057,31.6795854 L70.842522,31.8699819 L71.1290905,32.0755235 L71.5600205,32.3567909 L71.8487436,32.607768 L72.1331574,32.9323074 L72.4929839,33.3866625 L72.8765116,34.0054509 L73.2363382,34.674002 L73.4302567,35.2927903 L73.5724636,35.8423437 L73.7168251,36.4654592 L73.8374855,37.0409757 L73.8827332,37.5797111 L73.9796924,38.1573911 L74.0270947,38.8605597 L74.0529505,39.6610902 L73.9796924,40.1414084 L73.908589,40.6671622 L73.7900832,41.2491695 L73.693124,41.6602527 L73.5013601,42.3179858 L73.1652347,43.0882259 L72.9497697,43.5598897 L72.831264,43.8325028 L72.5899432,44.211132 L72.3981793,44.6806323 L72.0405074,45.1458054 L71.7754855,45.4833264 L71.6332786,45.7343035 L71.488917,45.8446468 L71.2993078,46.0285525 L71.1527916,46.2578936 L70.8899243,46.4764168 L70.5300978,46.7511935 L70.3857362,46.8139377 L70.1465701,46.9588987 L69.9569609,47.0973688 L69.7888982,47.1384771 L69.5238762,47.3353643 L69.1166474,47.4716709 L68.5672116,47.6512493 L68.0134666,47.7832286 L67.5351343,47.882754 L67.2959681,47.8849176 L67.2959681,47.8632817 L67.3929274,47.7334659 L67.487732,47.5582147 L67.3929274,47.497634 L67.22271,47.5387423 L67.1042043,47.5517239 L66.9619974,47.5906686 L66.8650381,47.7421203 L66.9145951,47.8784269 L66.9145951,47.9519891 L66.7702335,47.9909338 L66.2660454,48.0688233 L66.1216839,48.0601689 L66.1001374,48.016897 L66.1712408,47.9866066 L66.3630047,47.9390075 L66.4793558,47.90439 L66.2897466,47.9022264 L66.0764362,47.9022264 L66.0764362,47.8286642 L66.1216839,47.7789015 L66.2164885,47.7680835 L66.4599639,47.7875558 L66.625872,47.6988484 L66.3630047,47.7053392 L66.0505804,47.7161572 L65.8588166,47.7832286 L65.2102669,47.8091918 L65.0443589,47.8286642 L64.852595,47.893572 L64.6845323,47.8892448 L64.4927685,47.9108808 L64.2299012,47.8676089 L64.0855396,47.9563163 L63.8226723,47.9606435 L63.4887016,48.0212242 L63.3206389,48.016897 L63.1762773,47.9606435 L63.1504215,47.8914084 L62.9608123,48.0558417 L62.7194915,48.1510399 L62.6957904,48.3198004 L62.6957904,48.4842337 L62.6483881,48.4885609 L62.6225323,48.3046552 Z" id="Fill-29" fill="#FEFCEA"></path>
                    <polygon id="Fill-30" fill="#FEFCEA" points="90.0044709 45.3208403 89.9075116 45.0244277 89.7631501 45.0179369 89.5239839 45.1390983 89.381777 45.1066443 89.2848178 45.188861 89.1641574 45.1520798 88.9723935 45.0092825 88.6621239 44.5484366 88.2785962 43.83445 87.9446255 43.1399358 87.6796035 42.7180346 87.4404374 42.2528615 86.9599504 41.4306951 86.5074739 40.6777638 86.0032858 39.7409269 85.6197581 39.0983389 85.3568908 38.7024009 84.7815993 37.8694165 84.3743704 37.112158 84.0145439 36.512842 83.7732231 36.1623395 83.5103558 35.790201 83.4866546 35.7447655 83.4392523 35.7490927 83.4133965 35.8940536 83.4133965 37.428043 83.3940047 37.8326354 83.4133965 38.3497348 83.3681489 38.9468872 83.3681489 40.1974456 83.3444477 40.6474735 83.3444477 41.5691653 83.3185919 42.0667923 83.2237873 42.1944444 83.2711896 42.330751 83.2970454 42.4237856 83.2711896 42.5189838 83.2237873 42.6661083 83.2711896 42.850014 83.2474885 42.9711753 83.2000862 43.1637353 83.0083223 43.25677 82.9846212 43.3779313 83.05357 43.4644752 83.1031269 43.529383 83.176385 43.4969291 83.2237873 43.4688023 83.2474885 43.4666387 83.2474885 43.4882747 83.2237873 43.6094361 83.0794258 43.6743439 82.9135177 43.7392518 82.8402596 43.9123395 82.9135177 44.0226829 82.9372189 44.0443188 82.9846212 44.1092267 83.0083223 44.1524986 82.9587654 44.3493858 82.9587654 44.4900195 83.0341781 44.4337661 83.1031269 44.4748744 83.05357 44.5960357 82.9846212 44.7236879 83.0341781 44.9551926 83.05357 45.1866974 83.05357 45.279732 83.1505292 45.2472781 83.2237873 45.4290201 83.2237873 45.6172529 83.1031269 45.6778336 82.9587654 45.7643774 82.7433004 45.8119765 82.4804331 45.911502 82.2908239 45.9331379 82.1464623 45.9958822 81.9546985 46.0413177 81.8103369 46.1018984 81.7133777 46.0889168 81.5216138 46.205751 81.3320046 46.3680207 81.1617873 46.2684953 81.0906838 46.2533501 80.9937246 46.4524009 80.9463223 46.4567281 80.8536723 46.419947 80.7804142 46.4762004 80.5886504 46.4740369 80.3731854 46.4956728 80.2288238 46.489182 80.1103181 46.5497627 79.9896577 46.5151452 79.8474508 46.4372557 79.8474508 46.1062256 79.9659565 45.8336125 80.1340192 45.7427415 80.2288238 45.6626884 80.252525 45.5891262 80.1814215 45.5025824 79.9659565 45.5501815 79.8474508 45.3035315 79.8689973 44.9465382 79.8689973 44.5203099 79.821595 44.2433696 79.821595 43.8431044 79.8689973 43.2935511 79.821595 42.7331798 79.8689973 42.207426 79.8474508 41.597292 79.8474508 41.2186628 79.821595 40.2558626 79.8689973 39.2346454 79.821595 38.2956449 79.821595 37.8477806 79.8000485 37.4258794 79.8000485 36.9758515 79.821595 35.982761 79.821595 35.1108319 79.8474508 34.3038107 79.8689973 33.7585846 79.8926984 33.4015913 79.9401007 32.7590034 79.9896577 32.3760469 80.0133588 32.1380514 80.03706 31.5452261 80.0844623 31.1384701 80.1577204 30.3054858 80.1577204 29.8792574 80.1814215 29.8056951 80.2999273 29.7451145 80.5412481 29.6737158 80.7804142 29.6931882 81.0195804 29.6434255 81.2113442 29.6217895 81.3535511 29.6304439 81.4742115 29.5698632 81.7629346 29.6326075 81.8598939 29.5503908 82.0495031 29.5071189 82.2649681 29.4595198 82.4567319 29.485483 82.6506504 29.463847 82.7433004 29.3816304 82.8876619 29.3924484 82.9846212 29.4054299 83.0794258 29.3448492 83.2237873 29.3297041 83.3940047 29.3361949 83.5599127 29.2929229 83.6784185 29.3037409 83.82278 29.2171971 84.087802 29.3751396 84.469175 29.8532942 84.9970643 30.5759352 85.5465 31.3872836 85.7878208 31.7853853 86.0506881 32.1596873 86.5527216 32.953727 86.7940424 33.328029 87.3671793 34.1869765 87.8218104 34.9615438 88.1342347 35.5673506 88.5910205 36.2467197 88.828032 36.6210218 89.1167551 37.0385958 89.1641574 37.010469 89.1641574 36.7508375 89.1878585 36.5604411 89.1641574 36.4436069 89.1878585 36.2056114 89.2137143 35.9416527 89.2137143 35.7534199 89.1641574 35.5716778 89.1878585 35.26012 89.1167551 35.0805416 89.2374155 34.5958961 89.1641574 34.366555 89.1641574 34.1069235 89.2137143 33.7953657 89.1878585 33.4902987 89.2137143 33.2523032 89.2374155 33.0597432 89.2137143 32.921273 89.2374155 32.3760469 89.2611166 31.9000558 89.2611166 31.428392 89.2848178 30.9545645 89.3106736 30.2211055 89.2848178 29.5395729 89.3559212 29.0094919 89.381777 28.7952959 89.6187885 28.6979341 90.6250101 28.5875907 90.7693717 28.5508096 90.9137332 28.5789363 91.0580948 28.5183557 91.2735598 28.5161921 91.4653236 28.4231575 91.678634 28.4015215 92.016914 28.3171413 92.2065232 28.3193049 92.3982871 28.2760329 92.6396079 28.2479062 92.8313717 28.2046343 92.9735786 28.2349246 93.094239 28.2457426 93.094239 28.2933417 93.0705379 28.671971 93.0705379 29.5936628 93.0209809 30.4482831 92.9972798 31.1363065 92.9477228 31.9930905 92.9240217 32.4669179 92.878774 33.2739391 92.8550729 33.7023311 92.8313717 34.2237577 92.7818148 34.9139447 92.7581136 35.6712032 92.7581136 36.1190676 92.7344125 36.8784897 92.7107113 37.6119486 92.6848555 38.5120045 92.6848555 38.9836683 92.7344125 39.6630374 92.7344125 40.489531 92.7107113 41.0109576 92.6848555 41.41555 92.6848555 42.0278476 92.6611544 42.3632049 92.6611544 42.5730737 92.6396079 43.0966639 92.5641951 43.83445 92.5641951 44.4272753 92.4952463 44.7647962 92.3508848 44.8275405 92.1849767 44.8708124 91.9673571 44.8708124 91.8251502 44.9789922 91.7540467 44.963847 91.6312317 44.9313931 91.5364271 44.8924484 91.4653236 44.9963009 91.4157667 45.0482272 91.3942202 45.0265913 91.2003017 44.9789922 91.0106925 45.1866974 90.8878774 45.178043 90.7693717 45.0503908 90.6508659 45.0395729 90.5539066 45.1910246 90.4354009 45.2040061 90.3879986 45.0914992 90.3621428 45.0698632 90.3168951 45.0525544 90.2414824 45.1758794 90.1940801 45.4420017 90.1445231 45.6367253 90.0755743 45.6453797"></polygon>
                    <polygon id="Fill-31" fill="#FEFCEA" points="101.571063 44.0276591 101.379299 44.0254955 101.114277 44.0774218 100.73075 44.0968942 100.491583 44.1920924 100.325675 44.1401661 100.086509 44.1899288 99.7008268 44.2786362 99.5586199 44.2721454 99.3431549 44.2721454 99.2224945 44.215892 99.1276899 44.2007468 99.0802876 44.0190047 99.1513911 43.7269193 99.1750922 43.369926 99.2224945 42.893935 99.2483503 42.251347 99.2483503 41.8748814 99.2698968 41.212821 99.2483503 40.9315536 99.293598 40.7844291 99.293598 40.3106016 99.3172991 39.789175 99.3172991 39.0340801 99.3668561 38.2270589 99.3668561 36.7882677 99.3905572 36.1694793 99.3905572 35.3667853 99.4142584 34.9167574 99.4142584 34.2092616 99.3668561 33.3892588 99.3431549 32.4913666 99.293598 31.6713638 99.293598 31.2234994 99.3431549 30.3450796 99.3905572 29.9166876 99.4142584 29.5120952 99.4142584 28.3069724 99.3905572 27.8374721 99.3905572 27.6708752 99.5586199 27.6081309 99.6534245 27.5021147 99.7740849 27.5129327 99.9895499 27.4653336 100.325675 27.4047529 100.588543 27.3766262 100.707048 27.3398451 101.140133 27.292246 101.234938 27.259792 101.331897 27.248974 101.571063 27.1992113 101.883487 27.1386307 102.025694 27.0542504 102.288562 27.0477596 102.721646 26.9525614 103.128875 26.8833264 103.320639 26.8162549 103.55765 26.7664922 104.253602 26.7362018 105.402031 26.6583124 105.740311 26.6453308 106.024725 26.6366764 106.36085 26.6734576 106.817636 26.5977317 107.968219 26.4700796 108.065178 26.4376256 108.278489 26.4376256 108.662016 26.3943537 109.092946 26.3727178 109.381669 26.3640634 109.521722 26.3251186 109.618681 26.4549344 109.71564 26.6107133 109.765197 26.8400544 109.905249 26.9893425 110.051765 27.586495 109.978507 27.8785804 109.931105 28.0495045 109.931105 28.1663386 109.978507 28.3978434 110.075467 28.6250209 110.14657 28.7353643 110.002209 28.8435441 109.812599 28.9603783 109.597134 29.2892448 109.308411 29.6267658 109.142503 29.7868719 109.021843 29.8734157 108.85378 29.8690885 108.73312 29.8085078 108.614614 29.8452889 108.468098 29.8387982 108.08457 29.8582705 107.726898 29.9188512 107.608392 30.005395 107.461876 30.0205402 106.91244 30.1049204 104.9474 30.32128 104.08554 30.4381142 103.174123 30.5376396 103.150422 30.7042365 103.150422 32.264189 103.128875 32.9262493 103.150422 33.2096803 103.247381 33.2442979 104.111395 33.1274637 105.570093 32.9673576 106.289747 32.9349037 106.554769 32.9046133 106.768079 32.9522125 106.961997 32.9067769 107.199009 32.8808138 107.414474 32.8829774 107.800156 32.9327401 107.894961 32.9002862 108.108271 32.852687 108.349592 33.0625558 108.399149 33.2464615 108.42285 33.4801298 108.590913 33.6488903 108.493954 33.8479411 108.590913 34.00372 108.565057 34.1724805 108.590913 34.4061488 108.685717 34.5597641 108.590913 34.7112158 108.541356 34.9059394 108.517655 35.0984994 108.493954 35.2412968 108.590913 35.3018774 108.662016 35.3667853 108.590913 35.4663107 108.493954 35.4771287 108.30219 35.6393984 108.134127 35.9401382 108.20523 36.0742811 108.20523 36.1456798 107.918662 36.2495324 107.750599 36.455074 107.345525 36.5005095 105.475289 36.6606156 104.684532 36.770959 103.630908 36.931065 103.031916 37.0695352 102.840152 37.2080053 102.814296 37.3508026 102.769048 37.8527568 102.769048 38.3006212 102.745347 38.7528127 102.721646 39.3694375 102.69579 39.8194654 102.721646 40.1721315 103.199978 40.1418412 103.727868 40.0834241 103.964879 40.10506 104.660831 40.0293342 104.9474 40.0466429 105.548547 40.0509701 106.121684 39.9644263 107.800156 39.7783571 108.108271 39.698304 108.493954 39.6788317 108.877481 39.6139238 109.161895 39.629069 109.258854 39.7610483 109.334267 39.9427903 109.355814 40.1288596 109.500175 40.2305486 109.476474 40.3517099 109.381669 40.4771985 109.476474 40.5615787 109.521722 40.7216848 109.426917 40.7822655 109.355814 40.8125558 109.355814 40.8817909 109.476474 40.9640075 109.521722 41.1241136 109.426917 41.3707635 109.381669 41.6823213 109.28471 41.8575726 109.452773 41.957098 109.547577 42.0198423 109.500175 42.069605 109.308411 42.1864391 109.092946 42.353036 109.021843 42.5477596 109.045544 42.7100293 109.021843 42.7835916 108.541356 43.0735134 108.08457 43.1016401 107.584691 43.1795296 106.531067 43.3179997 106.074282 43.391562 105.787713 43.4456519 105.595949 43.5148869 105.283525 43.573304 103.964879 43.7182649 103.174123 43.8286083 102.167901 43.9367881 101.736971 44.0081868 101.642167 44.114203 101.618465 44.1185302"></polygon>
                    <polygon id="Fill-32" fill="#FEFCEA" points="119.966172 42.2446399 119.845512 42.0931882 119.845512 41.0762982 119.819656 40.4661642 119.798109 39.9252652 119.798109 39.2870045 119.845512 39.0944444 119.724851 38.6119626 119.724851 38.1857342 119.748552 37.7595059 119.798109 36.9741206 119.819656 36.3358599 119.772253 35.6564908 119.748552 35.2345896 119.798109 34.7088358 119.798109 34.3302066 119.388726 33.6897822 119.054755 33.2310999 118.83929 32.9974316 118.072235 31.9480877 117.85677 31.6646566 117.736109 31.5586404 117.522799 31.277373 117.066013 30.7105109 116.635083 30.1458124 116.298958 29.6633305 115.962832 29.2068118 115.773223 28.91689 115.486655 28.5014796 115.197932 28.0622697 115.05357 27.8177834 114.861806 27.4607901 114.838105 27.1816862 115.006168 27.0432161 115.148375 26.9566723 115.316437 26.8441653 115.486655 26.8484925 115.557758 26.7230039 115.796924 26.578043 115.988688 26.487172 116.085647 26.3811558 116.2257 26.3422111 116.275257 26.3140843 116.322659 26.262158 116.443319 26.2253769 116.585526 26.1626326 116.658784 26.05878 116.779445 26.0003629 116.874249 25.9419458 116.945353 25.8856924 117.066013 25.7796762 117.137117 25.8186209 117.210375 25.7147683 117.376283 25.5568258 117.617603 25.4832635 117.833068 25.3166667 118.022678 25.2474316 118.266153 25.5762982 118.600124 26.1539782 118.95995 26.6321329 119.388726 27.2703936 119.748552 27.7961474 120.037275 28.1661223 120.970239 29.3409548 121.090899 29.6114042 121.379622 30.0030151 121.616634 30.4011167 121.666191 30.442225 121.713593 30.4140983 121.857955 30.0679229 122.097121 29.4988973 122.217781 29.1765215 122.385844 28.9017448 122.622855 28.4257538 122.719815 28.1077052 122.816774 27.8870184 122.864176 27.7139308 123.006383 27.6295505 123.127044 27.4261725 123.150745 27.2119765 123.36621 26.7143495 123.654933 26.0933975 123.79714 25.86622 123.965202 25.470282 124.156966 25.0483808 124.182822 24.9272194 124.279781 24.7736041 124.322874 24.5810441 124.419834 24.453392 124.516793 24.3711753 124.682701 24.3993021 124.900321 24.3993021 125.113631 24.4707007 125.331251 24.4945003 125.570417 24.5637353 125.736325 24.6610972 125.833284 24.6048437 125.9798 24.6589336 126.145708 24.6632607 126.145708 24.7822585 126.264214 24.816876 126.432277 24.7498046 126.479679 24.816876 126.624041 24.7995673 126.744701 24.8341848 126.839506 24.8233668 126.910609 24.8861111 127.033424 24.8731295 127.319992 24.9120743 127.653963 24.9466918 127.845727 24.9986181 127.845727 25.0440536 127.798325 25.1911781 127.485901 25.7904941 127.15193 26.5369347 126.889062 27.0605248 126.600339 27.6814768 125.9798 28.9796343 125.619974 29.7498744 125.236446 30.6174763 124.924022 31.3833892 124.469391 32.3526801 124.230224 32.8762702 123.870398 33.7417085 123.702335 34.1614461 123.654933 34.237172 123.510571 34.5119486 123.463169 34.9187046 123.439468 35.3946957 123.439468 36.1259911 123.36621 37.0065745 123.342509 37.6253629 123.295106 38.0061558 123.316653 38.689852 123.316653 39.1615159 123.295106 39.9663735 123.295106 40.8383026 123.26925 41.5263261 123.26925 41.7405221 123.103342 41.8270659 122.93528 41.8703378 122.840475 41.9287549 122.599154 41.9071189 122.359988 42.0044807 122.097121 41.987172 122.026017 42.0866974 121.905357 42.1234785 121.810552 42.088861 121.737294 42.0499162 121.64249 42.1061697 121.569232 42.0910246 121.450726 42.056407 121.353767 42.1386237 121.21156 42.1775684 120.970239 42.2035315 120.875434 42.1451145 120.802176 42.1516052 120.610412 42.2424763 120.373401 42.2684394 120.13208 42.3182021"></polygon>
                    <polygon id="Fill-33" fill="#FEFCEA" points="147.19944 39.299986 147.19944 39.230751 147.152037 39.0230458 147.007676 38.8499581 146.884861 38.8629397 146.794366 38.9667923 146.647849 38.8889028 146.505642 38.9278476 146.384982 38.8953936 146.216919 38.8889028 146.025156 38.791541 145.954052 38.2809324 145.928196 37.8330681 145.954052 37.2402429 145.977753 36.554383 145.977753 36.0113205 146.025156 35.4639308 146.051011 34.5400754 146.098414 33.6140564 146.122115 33.1164294 146.145816 32.0757398 146.169517 31.0090871 146.169517 28.6962032 146.122115 28.1358319 146.145816 27.7550391 146.122115 27.5451703 146.074712 27.5256979 145.977753 27.6079146 145.857093 27.809129 145.714886 27.990871 145.497266 28.1574679 145.331358 28.386809 145.13744 28.6442769 144.947831 28.8779453 144.254033 29.6633305 143.605484 30.3015913 143.271513 30.6196399 143.221956 30.6261307 143.174554 30.5352596 143.006491 30.4854969 142.911686 30.3059185 142.840583 30.1955751 142.814727 30.1047041 142.670365 29.9294528 142.55186 29.6373674 142.457055 29.5291876 142.383797 29.3712451 142.33424 29.2133026 142.265291 29.1721943 142.24159 29.0575237 142.144631 28.927708 141.976568 28.6853853 141.858062 28.4387353 141.737402 28.2872836 141.666299 28.1271776 141.571494 27.9735623 141.498236 27.7442211 141.616742 27.4478085 142.000269 27.0778336 142.265291 26.8117113 142.599262 26.5412619 142.935387 26.171287 143.366317 25.7450586 143.726144 25.3296482 144.348838 24.6481156 145.473565 23.4603015 146.098414 22.7571329 146.384982 22.4650475 146.456086 22.2919598 146.647849 22.1751256 146.815912 21.9933836 146.934418 21.9068398 147.007676 21.9955472 147.057233 22.1556533 147.19944 22.1881072 147.3201 22.1967616 147.488163 22.1556533 147.604514 22.2357063 147.677772 22.2508515 147.725174 22.1534897 147.847989 22.1167085 147.942794 22.1534897 148.0613 22.1621441 148.134558 22.0842546 148.418972 22.0993998 148.541787 22.0150195 148.731396 22.0193467 149.188182 21.969584 149.332543 21.9046762 149.451049 21.9154941 149.595411 21.8765494 149.810876 21.8743858 149.953082 21.9782384 150.073743 22.1058906 150.121145 22.5018286 150.097444 22.8826214 150.026341 23.0319095 150.026341 23.1747069 150.073743 23.2872138 150.026341 23.4343384 150.050042 23.7610413 150.050042 24.8255304 150.002639 25.325321 150.002639 26.0328169 149.978938 26.8852736 149.953082 27.4326633 149.953082 28.3045924 149.978938 28.7740927 149.953082 29.0618509 149.978938 29.3863903 149.978938 30.0722501 150.002639 30.329718 150.002639 31.2968453 149.978938 32.1731016 149.931536 33.075321 149.907835 34.0446119 149.858278 35.0636655 149.834577 35.6586544 149.78502 36.1130095 149.737617 36.543565 149.668669 37.2813512 149.644968 37.7573423 149.548008 38.0039922 149.451049 38.1316443 149.285141 38.1987158 149.067521 38.2679509 148.972717 38.3739671 148.875757 38.3371859 148.731396 38.4453657 148.61289 38.4605109 148.565488 38.4194026 148.515931 38.4475293 148.397425 38.529746 148.300466 38.5167644 148.231517 38.5016192 148.156104 38.5816723 148.110857 38.5859994 148.0613 38.5427275 147.895392 38.5859994 147.774731 38.6703797 147.677772 38.7525963 147.559266 38.7158152 147.511864 38.7958682 147.414905 38.733124 147.3201 38.6963428 147.294244 38.7699051 147.294244 39.2891681 147.244687 39.3172948"></polygon>
                    <path d="M164.874249,30.2072585 L164.99491,30.0276801 L164.945353,30.0103713 L164.779445,30.1207147 L164.65663,30.2764936 L164.65663,30.3024567 L164.874249,30.2072585 Z M162.788548,27.5546901 L163.197932,27.3231854 L163.482345,27.0310999 L163.820625,26.7346873 L164.012389,26.5248185 L164.178297,26.4361111 L164.490722,26.0704634 L164.779445,25.7069793 L164.850548,25.5598548 L164.829002,25.4430207 L164.682485,24.986502 L164.2257,24.0929369 L163.699965,23.4676577 L163.437098,23.2815885 L163.172076,23.1950447 L162.764847,23.1214824 L162.239112,23.0847013 L161.831883,23.1063372 L161.687522,23.1907175 L161.64012,23.2686069 L161.616418,23.2945701 L161.519459,23.3053881 L161.256592,23.4979481 L160.896765,23.6796901 L160.657599,23.8484506 L160.276226,24.2205891 L159.81944,24.9778476 L159.625522,25.4711474 L159.603975,25.8973758 L159.625522,26.4382747 L159.748337,26.6394891 L159.963802,26.9445561 L160.228824,27.2712591 L160.465835,27.3642937 L160.610197,27.4659827 L160.77826,27.5157454 L160.993725,27.6585427 L161.20919,27.7061418 L161.592717,27.7342686 L162.239112,27.6866695 L162.788548,27.5546901 Z M160.465835,38.1498185 L159.48547,38.1865997 L159.078241,38.1606365 L158.571898,38.0978922 L158.309031,38.0091848 L157.925503,37.933459 L157.641089,37.8469151 L157.468717,37.7928252 L157.468717,37.6521915 L157.378222,37.5699749 L157.399768,37.4488135 L157.54413,37.3146706 L157.591532,37.1675461 L157.591532,37.0507119 L157.662636,36.8538247 L157.712193,36.7304997 L157.712193,36.3042714 L157.809152,36.2458543 L157.8544,36.0749302 L157.925503,35.9278057 L157.878101,35.8369347 L157.925503,35.6660106 L157.998761,35.5664852 L158.072019,35.5578308 L158.046163,35.5123953 L157.998761,35.3977247 L158.046163,35.2289643 L158.046163,35.0861669 L158.072019,34.9888051 L158.143123,34.9347152 L158.214226,34.7854271 L158.309031,34.7291736 L158.382289,34.7205193 L158.40599,34.6945561 L158.358588,34.6058487 L158.28533,34.4933417 L158.358588,34.4154523 L158.524496,34.443579 L158.668857,34.5257956 L158.645156,34.6209939 L158.668857,34.7140285 L158.739961,34.6815745 L158.739961,34.5863763 L158.765816,34.5149777 L158.813219,34.4825237 L159.099787,34.5474316 L159.81944,34.6556114 L160.728703,34.6750838 L160.896765,34.7053741 L161.017426,34.6923925 L161.20919,34.5993579 L161.400953,34.6729202 L161.592717,34.6512842 L161.665975,34.6664294 L161.76078,34.6101759 L162.165854,34.5171413 L162.454577,34.3916527 L162.575238,34.2834729 L162.838105,34.1125489 L163.079426,34.015187 L163.462953,33.6668481 L163.796924,33.3012004 L164.03609,32.9658431 L164.348515,32.3903266 L164.585526,32.0095338 L164.682485,31.8321189 L164.753589,31.4469989 L164.89795,30.8649916 L164.969054,30.5036711 L164.945353,30.3414015 L164.779445,30.3587102 L164.469175,30.5815606 L163.557758,31.0597152 L163.124673,31.178713 L162.814404,31.3063652 L162.142153,31.4275265 L161.687522,31.4556533 L161.20919,31.4361809 L160.25037,31.3518007 L159.700935,31.2457845 L158.83692,30.964517 L158.237927,30.6291597 L158.09572,30.5491066 L157.759595,30.3262563 L157.449325,30.1012423 L156.897735,29.5019263 L156.753373,29.3050391 L156.609012,29.1795505 L156.488351,28.9783361 L156.322443,28.6905779 L155.962617,28.1648241 L155.794554,27.6390704 L155.768698,27.4768007 L155.865658,27.3707845 L155.938916,27.1760609 L156.03372,26.8818118 L156.057421,26.6200168 L156.081123,26.2846594 L156.081123,25.9557929 L156.128525,25.8324679 L156.128525,25.6680346 L156.201783,25.3759492 L156.298742,25.0362647 L156.346145,24.8177415 L156.372,24.7182161 L156.393547,24.6944165 L156.753373,23.9458124 L156.921436,23.5736739 L156.99254,23.4005863 L157.134746,23.2210078 L157.449325,22.7601619 L157.925503,22.1651731 L158.214226,21.8276521 L158.261628,21.7281267 L158.455547,21.5636935 L158.455547,21.4922948 L158.382289,21.4771496 L158.358588,21.4576773 L158.479248,21.3473339 L158.621455,21.2391541 L158.621455,21.2845896 L158.597754,21.3603155 L158.621455,21.3797878 L158.739961,21.3192071 L158.862776,21.213191 L158.884322,21.1872278 L159.125643,21.0422669 L159.38851,20.8735064 L159.459614,20.6744556 L159.772038,20.4516052 L160.106009,20.2741904 L160.418433,20.1681742 L160.825662,19.982105 L161.400953,19.847962 L161.952544,19.6229481 L162.525681,19.5126047 L162.838105,19.4996231 L163.006168,19.4823143 L163.103127,19.4022613 L163.482345,19.3827889 L163.962832,19.4476968 L164.89795,19.6532384 L165.186673,19.7852178 L165.42584,19.8782524 L165.688707,19.9669598 L166.19074,20.3369347 L166.479463,20.6117113 L166.766032,20.9124511 L167.028899,21.2110274 L167.533087,21.8644333 L167.966172,22.5740927 L168.325999,23.3832775 L168.466051,23.8419598 L168.707372,24.8047599 L168.825877,25.7113065 L168.970239,26.6178532 L168.970239,27.1133166 L168.948692,27.8467755 L168.922837,28.1561697 L168.825877,28.309785 L168.851733,28.5196538 L168.825877,28.829048 L168.802176,29.043244 L168.731073,29.359129 L168.731073,29.6663596 L168.636268,29.958445 L168.539309,30.2764936 L168.539309,30.3933277 L168.466051,30.5209799 L168.466051,30.7568118 L168.420803,31.0207705 L168.347545,31.3604551 L168.203183,31.799665 L168.082523,32.1912758 L167.987718,32.4617253 L167.869213,32.7105388 L167.772253,32.8857901 L167.795955,33.0264238 L167.679604,33.2990369 L167.365025,33.7815187 L167.151714,34.229383 L167.028899,34.3591988 L166.910393,34.5625768 L166.716475,34.8438442 L166.576423,35.1186209 L166.479463,35.2700726 L166.335102,35.4042155 L166.169194,35.5881212 L165.998977,35.7958264 L165.75981,35.9862228 L165.279323,36.4189419 L165.091869,36.5812116 L164.945353,36.713191 L164.561825,36.9684953 L164.201998,37.221636 L163.988688,37.3622697 L163.725821,37.4617951 L163.197932,37.7560441 L162.596784,37.9399497 L162.454577,37.8620603 L162.068895,37.9507677 L161.400953,38.0719291 L160.465835,38.1498185 Z" id="Fill-34" fill="#FEFCEA"></path>
                    <path d="M183.36761,28.1756421 L183.488271,27.9982272 L183.438714,27.9809185 L183.270651,28.0912619 L183.149991,28.2470408 L183.149991,28.2708403 L183.36761,28.1756421 Z M181.281909,25.5252373 L181.691293,25.291569 L181.975706,25.0016471 L182.313986,24.7052345 L182.50575,24.4953657 L182.671658,24.4044947 L182.981928,24.0410106 L183.270651,23.6775265 L183.341754,23.5282384 L183.320208,23.4114042 L183.175846,22.9570491 L182.719061,22.0634841 L182.191171,21.4360413 L181.928304,21.2521357 L181.665437,21.1634283 L181.258208,21.0920296 L180.732473,21.0530849 L180.325244,21.0747208 L180.180883,21.1612647 L180.131326,21.2369905 L180.107625,21.2629537 L180.01282,21.2737716 L179.747798,21.4663317 L179.387972,21.6480737 L179.15096,21.8168342 L178.765278,22.1889726 L178.310647,22.9483948 L178.118883,23.4416946 L178.097336,23.8679229 L178.118883,24.4088219 L178.241698,24.6078727 L178.457163,24.9151033 L178.72003,25.2418063 L178.959196,25.3326773 L179.103558,25.4343663 L179.271621,25.4862926 L179.484931,25.6269263 L179.700396,25.676689 L180.083924,25.7026521 L180.732473,25.6572166 L181.281909,25.5252373 Z M178.959196,36.1182021 L177.976676,36.1549832 L177.571602,36.1290201 L177.065259,36.0662758 L176.802392,35.979732 L176.418864,35.9018425 L176.13445,35.8152987 L175.962078,35.7633724 L175.962078,35.6205751 L175.869428,35.5383585 L175.890975,35.4171971 L176.037491,35.2830542 L176.084893,35.1359296 L176.084893,35.0190955 L176.155997,34.8222083 L176.203399,34.6988833 L176.203399,34.2748185 L176.300358,34.2164015 L176.347761,34.0454774 L176.418864,33.8961893 L176.371462,33.8074819 L176.418864,33.6343942 L176.492122,33.5348688 L176.563226,33.528378 L176.53737,33.4807789 L176.492122,33.3682719 L176.53737,33.1973479 L176.53737,33.0567141 L176.563226,32.9593523 L176.634329,32.9052624 L176.707587,32.7538107 L176.802392,32.6975572 L176.873495,32.6889028 L176.897196,32.6651033 L176.851949,32.5742323 L176.778691,32.4638889 L176.851949,32.3838358 L177.017857,32.4141262 L177.162218,32.4941792 L177.138517,32.5893774 L177.162218,32.6824121 L177.233322,32.6499581 L177.233322,32.5547599 L177.257023,32.4833613 L177.30658,32.4530709 L177.590994,32.5158152 L178.310647,32.6261586 L179.222064,32.6434673 L179.387972,32.6737577 L179.510787,32.6607761 L179.700396,32.5677415 L179.894314,32.6413037 L180.083924,32.6218314 L180.157182,32.6369765 L180.254141,32.5785595 L180.659215,32.4855248 L180.947938,32.3621999 L181.068599,32.2540201 L181.331466,32.083096 L181.570632,31.9835706 L181.95416,31.6352317 L182.288131,31.269584 L182.527297,30.9342267 L182.841876,30.3587102 L183.078887,29.9779174 L183.175846,29.8026661 L183.244795,29.4175461 L183.391311,28.8355388 L183.462415,28.4720547 L183.438714,28.309785 L183.270651,28.3270938 L182.960381,28.5499442 L182.051119,29.0280988 L181.618034,29.1470966 L181.307765,29.2747487 L180.635514,29.3959101 L180.180883,29.4240369 L179.700396,29.4045645 L178.743731,29.3223479 L178.194296,29.2141681 L177.328126,28.9350642 L176.731288,28.5975433 L176.586927,28.5196538 L176.250801,28.2968035 L175.940532,28.0696259 L175.391096,27.4724735 L175.24458,27.2734227 L175.102373,27.1479341 L174.981712,26.9488833 L174.81365,26.6589615 L174.453823,26.1332077 L174.287915,25.6074539 L174.262059,25.4473479 L174.359019,25.3413317 L174.430122,25.1444444 L174.524927,24.8501954 L174.550782,24.5884003 L174.574484,24.2552066 L174.574484,23.9241764 L174.621886,23.8008515 L174.621886,23.6364182 L174.695144,23.3464964 L174.789949,23.0046482 L174.837351,22.7861251 L174.863207,22.6887633 L174.884753,22.6628001 L175.24458,21.914196 L175.414797,21.5420575 L175.483746,21.3689698 L175.628107,21.1893914 L175.940532,20.7307091 L176.418864,20.1335567 L176.707587,19.7960357 L176.754989,19.6965103 L176.946753,19.5342406 L176.946753,19.462842 L176.873495,19.4455332 L176.851949,19.4260609 L176.970454,19.3178811 L177.114816,19.2075377 L177.114816,19.2551368 L177.091115,19.3308626 L177.114816,19.350335 L177.233322,19.2897543 L177.353982,19.1815745 L177.377683,19.157775 L177.616849,19.0128141 L177.881871,18.84189 L177.95082,18.6428392 L178.265399,18.4221524 L178.59937,18.242574 L178.911794,18.1365578 L179.319023,17.9504886 L179.894314,17.8185092 L180.44375,17.5913317 L181.019042,17.4809883 L181.331466,17.4701703 L181.497374,17.4506979 L181.594333,17.3706449 L181.975706,17.3533361 L182.456193,17.418244 L183.391311,17.621622 L183.67788,17.7557649 L183.919201,17.846636 L184.182068,17.937507 L184.681947,18.3053183 L184.972824,18.5800949 L185.259393,18.8808347 L185.52226,19.1815745 L186.026448,19.8349805 L186.457378,20.5424763 L186.817205,21.3538247 L186.959412,21.8103434 L187.198578,22.7753071 L187.319238,23.6818537 L187.461445,24.5862367 L187.461445,25.0817002 L187.442053,25.8173227 L187.416198,26.1267169 L187.319238,26.2781686 L187.345094,26.4880374 L187.319238,26.7974316 L187.295537,27.0137912 L187.222279,27.3275126 L187.222279,27.6347432 L187.127474,27.9268286 L187.03267,28.2448772 L187.03267,28.3617113 L186.959412,28.4893635 L186.959412,28.7251954 L186.914164,28.9913177 L186.838751,29.3288386 L186.696544,29.7680486 L186.575884,30.1596594 L186.478925,30.4301089 L186.362574,30.681086 L186.265614,30.8563372 L186.289316,30.9948074 L186.17081,31.2674204 L185.858386,31.7499023 L185.645075,32.1977666 L185.52226,32.329746 L185.4016,32.5309604 L185.209836,32.8122278 L185.067629,33.0891681 L184.972824,33.2406198 L184.828463,33.3725991 L184.6604,33.5565047 L184.492338,33.7642099 L184.253171,33.95677 L183.772684,34.3873255 L183.583075,34.5495952 L183.438714,34.6815745 L183.055186,34.9368788 L182.695359,35.1900195 L182.482049,35.3306533 L182.217027,35.4323423 L181.691293,35.7265913 L181.090145,35.9104969 L180.947938,35.8304439 L180.562256,35.9191513 L179.894314,36.0424763 L178.959196,36.1182021 Z" id="Fill-35" fill="#FEFCEA"></path>
                    <polygon id="Fill-36" fill="#FEFCEA" points="197.833715 33.7388959 197.833715 33.6696608 197.786313 33.4619556 197.644106 33.288868 197.521291 33.3018495 197.428641 33.4057021 197.284279 33.3299763 197.139918 33.368921 197.019257 33.3343035 196.853349 33.3278127 196.659431 33.2304509 196.590482 32.7198423 196.564626 32.2719779 196.590482 31.6813163 196.614183 30.9932929 196.614183 30.4502303 196.659431 29.9028406 196.685286 28.9811488 196.732689 28.0551298 196.75639 27.5553392 196.780091 26.5146496 196.803792 25.4501605 196.803792 23.1372767 196.75639 22.5747418 196.780091 22.1939489 196.75639 21.9840801 196.708988 21.9667714 196.614183 22.048988 196.493523 22.2480388 196.349161 22.4319444 196.133696 22.5963777 195.965633 22.8278825 195.773869 23.0853504 195.582106 23.3168551 194.888308 24.1022404 194.239759 24.7405011 193.905788 25.0607133 193.856231 25.0650405 193.808829 24.9763331 193.642921 24.9244068 193.545961 24.7448283 193.474858 24.6344849 193.449002 24.5436139 193.306795 24.3683626 193.186135 24.0762772 193.09133 23.9680974 193.020227 23.8123185 192.97067 23.6522125 192.899566 23.6111041 192.875865 23.4985972 192.778906 23.3666178 192.612998 23.1242951 192.492338 22.8776452 192.373832 22.7261935 192.302728 22.568251 192.205769 22.4146357 192.132511 22.1852945 192.253171 21.8888819 192.636699 21.5167434 192.899566 21.2527848 193.233537 20.9801717 193.569663 20.6123604 194.002747 20.186132 194.362574 19.7707217 194.983113 19.0870254 196.109995 17.9013749 196.732689 17.1960427 197.019257 16.9039573 197.090361 16.7330332 197.284279 16.6161991 197.450187 16.4322934 197.570848 16.3479132 197.644106 16.434457 197.691508 16.5945631 197.833715 16.627017 197.95653 16.637835 198.122438 16.5945631 198.240944 16.6746161 198.314202 16.6919249 198.361604 16.5923995 198.482265 16.5556184 198.577069 16.5923995 198.69773 16.6032175 198.768833 16.525328 199.055401 16.5404732 199.176062 16.4539294 199.367826 16.4582566 199.822457 16.4084939 199.966818 16.343586 200.087479 16.354404 200.229686 16.3154592 200.447305 16.3154592 200.587358 16.4171482 200.710173 16.546964 200.757575 16.942902 200.733874 17.3236949 200.660616 17.472983 200.660616 17.6136167 200.710173 17.7282873 200.660616 17.8732482 200.684317 18.1999511 200.684317 19.2644403 200.636915 19.7663945 200.636915 20.4738903 200.613213 21.326347 200.587358 21.8715731 200.587358 22.7435022 200.613213 23.2151661 200.587358 23.5007607 200.613213 23.8274637 200.613213 24.51116 200.636915 24.7686279 200.636915 25.7357552 200.613213 26.6120114 200.565811 27.5163945 200.54211 28.4856854 200.494708 29.504739 200.471006 30.0997278 200.42145 30.5519193 200.374047 30.9824749 200.302944 31.720261 200.279243 32.1962521 200.182283 32.442902 200.087479 32.5705542 199.919416 32.6376256 199.703951 32.7068607 199.606992 32.8128769 199.510033 32.7760958 199.367826 32.8864391 199.247165 32.8994207 199.199763 32.8583124 199.150206 32.8864391 199.033855 32.9708194 198.936896 32.9578378 198.865792 32.9426926 198.790379 33.0205821 198.745132 33.0270729 198.69773 32.9838009 198.529667 33.0249093 198.409006 33.1092895 198.314202 33.1936697 198.193541 33.1568886 198.146139 33.2347781 198.04918 33.1720338 197.95653 33.1374162 197.930674 33.2088149 197.930674 33.7280779 197.881117 33.7583682"></polygon>
                </g>
            </g>
        </g>
    </g>
</svg>