<?xml version="1.0" encoding="UTF-8"?>
<svg width="1072px" height="469px" viewBox="0 0 1072 469" version="1.1" xmlns="http://www.w3.org/2000/svg" xmlns:xlink="http://www.w3.org/1999/xlink">
    <title>Graphic/Path/1/White</title>
    <g id="Graphic/Path/1/White" stroke="none" stroke-width="1" fill="none" fill-rule="evenodd">
        <g id="Group-2" transform="translate(-0.000000, -0.000000)" fill="#FEFCE4">
            <polygon id="Fill-1" points="0.2898 0 0 0.133 1.6366 3.6064 1.9698 3.4412"></polygon>
            <polygon id="Fill-2" points="3.74304 6.83382 5.61064 10.17982 5.19344 10.41502 3.36644 7.03402"></polygon>
            <polygon id="Fill-3" points="7.56574 13.46814 9.60694 16.70074 9.11414 17.01574 7.11074 13.74254"></polygon>
            <polygon id="Fill-4" points="11.73298 19.87412 13.94358 22.99472 13.38358 23.39792 11.20518 20.23252"></polygon>
            <polygon id="Fill-5" points="16.2365 26.05652 18.6053 29.05672 17.9837 29.55512 15.6429 26.50592"></polygon>
            <polygon id="Fill-6" points="21.05306 31.9956 23.57306 34.8698 22.89546 35.469 20.40206 32.543"></polygon>
            <polygon id="Fill-7" points="26.16362 37.6803 28.82222 40.4243 28.10262 41.1313 25.46362 38.3327"></polygon>
            <polygon id="Fill-8" points="31.549 43.10264 34.3336 45.70804 33.5762 46.52704 30.8084 43.86424"></polygon>
            <polygon id="Fill-9" points="37.18316 48.24596 40.09236 50.71556 39.30836 51.65076 36.41036 49.12236"></polygon>
            <polygon id="Fill-10" points="43.06204 53.11586 46.08744 55.44686 45.28244 56.50106 42.26544 54.11126"></polygon>
            <polygon id="Fill-11" points="49.16786 57.70492 52.29966 59.89172 51.48486 61.07052 48.35586 58.82212"></polygon>
            <polygon id="Fill-12" points="55.48438 62.0053 58.71558 64.0493 57.90498 65.3485 54.66818 63.2485"></polygon>
            <polygon id="Fill-13" points="61.98262 66.02008 65.29502 67.91568 64.51382 69.30448 61.18602 67.36408"></polygon>
            <polygon id="Fill-14" points="68.649 69.73344 72.044 71.47504 71.2992 72.95484 67.8846 71.16844"></polygon>
            <polygon id="Fill-15" points="75.47666 73.13768 78.94726 74.72248 78.24446 76.29188 74.75146 74.66228"></polygon>
            <polygon id="Fill-16" points="82.45076 76.22622 85.98856 77.65002 85.33616 79.30902 81.77316 77.84042"></polygon>
            <polygon id="Fill-17" points="89.5587 78.99262 93.1567 80.25122 92.5603 81.99842 88.9329 80.69502"></polygon>
            <polygon id="Fill-18" points="96.78298 81.42834 100.43418 82.52034 99.90218 84.35294 96.21738 83.21754"></polygon>
            <polygon id="Fill-19" points="104.11114 83.52694 107.80994 84.44674 107.34794 86.36334 103.61414 85.40154"></polygon>
            <polygon id="Fill-20" points="111.53352 85.2817 115.27432 86.0265 114.89072 88.0243 111.11072 87.2389"></polygon>
            <polygon id="Fill-21" points="119.02842 86.6817 122.79582 87.2459 122.50182 89.3221 118.69102 88.7201"></polygon>
            <polygon id="Fill-22" points="126.57526 87.71868 130.36086 88.09808 130.16346 90.24988 126.32746 89.83268"></polygon>
            <polygon id="Fill-23" points="134.1536 88.38452 137.9504 88.57632 137.858 90.79672 134.008 90.57132"></polygon>
            <polygon id="Fill-24" points="141.74832 88.67166 145.55352 88.67166 145.57312 90.95646 141.71192 90.92566"></polygon>
            <polygon id="Fill-25" points="149.35676 88.57254 153.15496 88.37514 153.29636 90.72014 149.43796 90.88814"></polygon>
            <polygon id="Fill-26" points="156.94602 88.07974 160.72742 87.69054 161.00042 90.07194 157.15182 90.44994"></polygon>
            <polygon id="Fill-27" points="164.49832 87.20194 168.25312 86.61254 168.65772 89.00094 164.83572 89.58894"></polygon>
            <polygon id="Fill-28" points="171.9851 85.9215 175.6993 85.1291 176.2397 87.5175 172.4583 88.3113"></polygon>
            <polygon id="Fill-29" points="179.3925 84.2317 183.0745 83.2405 183.7381 85.6247 180.0015 86.6173"></polygon>
            <polygon id="Fill-30" points="186.73438 82.17552 190.37998 81.05132 191.13038 83.43692 187.44558 84.55972"></polygon>
            <polygon id="Fill-31" points="194.01732 79.87994 197.64892 78.67734 198.44552 81.07414 194.79572 82.26974"></polygon>
            <polygon id="Fill-32" points="201.27842 77.45458 204.91142 76.22678 205.72342 78.64598 202.08762 79.86118"></polygon>
            <polygon id="Fill-33" points="208.55184 75.00668 212.20304 73.80828 212.99264 76.26108 209.35544 77.44128"></polygon>
            <polygon id="Fill-34" points="215.87314 72.64418 219.56354 71.52978 220.29014 74.02878 216.63614 75.11938"></polygon>
            <polygon id="Fill-35" points="223.27648 70.47852 227.01728 69.50832 227.64168 72.06052 223.95828 73.00412"></polygon>
            <polygon id="Fill-36" points="230.78776 68.63276 234.59156 67.86976 235.06616 70.48076 231.34356 71.21436"></polygon>
            <polygon id="Fill-37" points="238.41398 67.23822 242.27238 66.75242 242.54678 69.41802 238.79478 69.87722"></polygon>
            <polygon id="Fill-38" points="246.15234 66.43098 250.04854 66.28958 250.07654 68.99578 246.30914 69.11898"></polygon>
        </g>
        <g id="Group-419" transform="translate(253.835960, 24.185140)" fill="#FEFCE4">
            <path d="M0.112,42.15764 C1.414,42.20244 2.709,42.33124 4.0082,42.41384 L3.7534,45.13264 C2.5018,45.05004 1.253,44.91984 0,44.87364 L0.112,42.15764 Z" id="Fill-39"></path>
            <polygon id="Fill-41" points="7.88452 42.87192 11.73032 43.52292 11.19832 46.22772 7.48972 45.58652"></polygon>
            <polygon id="Fill-43" points="15.53664 44.35872 19.29704 45.36672 18.51304 48.03512 14.87444 47.04812"></polygon>
            <polygon id="Fill-45" points="23.00564 46.53334 26.66244 47.84654 25.66004 50.47014 22.10824 49.18074"></polygon>
            <polygon id="Fill-47" points="30.26394 49.29428 33.81154 50.86088 32.62154 53.43268 29.16354 51.88988"></polygon>
            <polygon id="Fill-49" points="37.30496 52.53458 40.74896 54.30418 39.40496 56.82698 36.03516 55.08118"></polygon>
            <polygon id="Fill-51" points="44.14228 56.15554 47.48828 58.08754 46.03088 60.55714 42.73388 58.65874"></polygon>
            <polygon id="Fill-53" points="50.79088 60.08492 54.05568 62.13452 52.52688 64.53692 49.29428 62.51952"></polygon>
            <polygon id="Fill-55" points="57.29192 64.22948 60.49652 66.35888 58.92432 68.70808 55.73792 66.60248"></polygon>
            <polygon id="Fill-57" points="63.67942 68.51628 66.84622 70.69468 65.25162 73.00328 62.09462 70.84448"></polygon>
            <polygon id="Fill-59" points="69.9972 72.88372 73.143 75.07892 71.5498 77.36512 68.4026 75.17972"></polygon>
            <polygon id="Fill-61" points="76.28488 77.27314 79.42928 79.45854 77.85988 81.73354 74.70148 79.55094"></polygon>
            <polygon id="Fill-63" points="82.58208 81.6256 85.74748 83.7676 84.22148 86.0496 81.03228 83.9006"></polygon>
            <polygon id="Fill-65" points="88.93136 85.87684 92.13876 87.94884 90.67576 90.24764 87.43756 88.16584"></polygon>
            <polygon id="Fill-67" points="95.3694 89.98598 98.6216 91.98658 97.2216 94.29798 93.9386 92.29038"></polygon>
            <polygon id="Fill-69" points="101.89634 93.95008 105.19334 95.87788 103.85634 98.20188 100.52854 96.26848"></polygon>
            <polygon id="Fill-71" points="108.51218 97.76802 111.85118 99.62162 110.57578 101.95682 107.20458 100.09762"></polygon>
            <polygon id="Fill-73" points="115.20866 101.43812 118.58826 103.21752 117.37446 105.56252 113.96406 103.77752"></polygon>
            <polygon id="Fill-75" points="121.98592 104.9608 125.39912 106.6758 124.25532 109.0082 120.80292 107.3086"></polygon>
            <polygon id="Fill-77" points="128.82996 108.35342 132.28096 109.99422 131.21556 112.29162 127.72676 110.66762"></polygon>
            <polygon id="Fill-79" points="135.74792 111.59638 139.23392 113.16158 138.24552 115.42118 134.72312 113.87558"></polygon>
            <polygon id="Fill-81" points="142.7356 114.68898 146.2552 116.17718 145.3396 118.39758 141.785 116.92898"></polygon>
            <polygon id="Fill-83" points="149.79034 117.62842 153.34074 119.04102 152.49934 121.21942 148.91254 119.82922"></polygon>
            <polygon id="Fill-85" points="156.90654 120.4154 160.48914 121.751 159.71494 123.886 156.10014 122.5728"></polygon>
            <polygon id="Fill-87" points="164.08434 123.04796 167.69354 124.30516 166.98654 126.39676 163.34514 125.16056"></polygon>
            <polygon id="Fill-89" points="171.31674 125.52526 174.95254 126.70546 174.31134 128.74806 170.64334 127.59166"></polygon>
            <polygon id="Fill-91" points="178.60108 127.84604 182.26208 128.94784 181.68388 130.94004 177.99068 129.86344"></polygon>
            <polygon id="Fill-93" points="185.9347 130.0096 189.6195 131.0316 189.1015 132.9748 185.3859 131.978"></polygon>
            <polygon id="Fill-95" points="193.3148 132.01468 197.0206 132.95828 196.5586 134.84688 192.8248 133.93128"></polygon>
            <polygon id="Fill-97" points="200.73592 133.8617 204.46132 134.7255 204.05532 136.5581 200.30192 135.7237"></polygon>
            <polygon id="Fill-99" points="208.19666 135.54814 211.94026 136.33074 211.58746 138.10594 207.81726 137.35274"></polygon>
            <polygon id="Fill-101" points="215.69282 137.0733 219.45322 137.7747 219.15082 139.4911 215.36522 138.8191"></polygon>
            <polygon id="Fill-103" points="223.22062 138.43634 226.99502 139.05654 226.74022 140.71134 222.94202 140.12194"></polygon>
            <polygon id="Fill-105" points="230.77572 139.6353 234.56272 140.1729 234.35412 141.7661 230.54332 141.2593"></polygon>
            <polygon id="Fill-107" points="238.35672 140.66962 242.15492 141.12462 241.98692 142.65482 238.16772 142.23202"></polygon>
            <polygon id="Fill-109" points="245.9569 141.53776 249.7649 141.91016 249.6361 143.37596 245.8099 143.03716"></polygon>
            <polygon id="Fill-111" points="253.57626 142.23986 257.39266 142.52826 257.30026 143.92966 253.46706 143.67346"></polygon>
            <polygon id="Fill-113" points="261.2106 142.77368 265.0312 142.97808 264.9738 144.31368 261.135 144.14288"></polygon>
            <polygon id="Fill-115" points="268.8532 143.1395 272.678 143.2557 272.6514 144.5297 268.8126 144.4429"></polygon>
            <polygon id="Fill-117" points="276.50406 143.32262 280.33026 143.34642 280.33306 144.59242 276.49146 144.58262"></polygon>
            <polygon id="Fill-119" points="284.15758 143.32682 287.98378 143.26522 288.01318 144.48462 284.17438 144.56022"></polygon>
            <polygon id="Fill-121" points="291.81236 143.15784 295.63296 142.99264 295.69456 144.18404 291.85576 144.36324"></polygon>
            <polygon id="Fill-123" points="299.4481 142.76206 303.2603 142.46386 303.3625 143.62586 299.5321 143.93946"></polygon>
            <polygon id="Fill-125" points="307.0648 142.09832 310.8644 141.66292 311.0058 142.79412 307.188 143.24492"></polygon>
            <polygon id="Fill-127" points="314.65266 141.15766 318.43126 140.57946 318.61326 141.67706 314.81366 142.27206"></polygon>
            <polygon id="Fill-129" points="322.1981 139.9265 325.9515 139.1971 326.1713 140.2611 322.3997 141.0073"></polygon>
            <polygon id="Fill-131" points="329.68628 138.38916 333.40328 137.49876 333.66368 138.52636 329.92708 139.43496"></polygon>
            <polygon id="Fill-133" points="337.09914 136.52436 340.76994 135.46176 341.07094 136.45016 337.37914 137.53236"></polygon>
            <polygon id="Fill-135" points="344.41218 134.30942 348.02418 133.06202 348.36578 134.00702 344.73418 135.27542"></polygon>
            <polygon id="Fill-137" points="351.5995 131.71662 355.1345 130.27042 355.5209 131.16922 351.9635 132.64062"></polygon>
            <polygon id="Fill-139" points="358.62414 128.71768 362.05834 127.05028 362.49374 127.90988 359.03154 129.59268"></polygon>
            <polygon id="Fill-141" points="365.43276 125.26486 368.74096 123.36226 369.24636 124.20646 365.90176 126.11746"></polygon>
            <polygon id="Fill-143" points="371.97608 121.33968 375.12888 119.19208 375.70848 120.01108 372.51788 122.17128"></polygon>
            <polygon id="Fill-145" points="378.18998 116.9196 381.14958 114.5186 381.81038 115.2984 378.80878 117.7204"></polygon>
            <polygon id="Fill-147" points="383.99774 111.9874 386.72354 109.3274 387.46834 110.0582 384.70054 112.7448"></polygon>
            <polygon id="Fill-149" points="389.31746 106.53986 391.76606 103.62646 392.59626 104.29146 390.10426 107.23846"></polygon>
            <polygon id="Fill-151" points="394.06304 100.59252 396.19664 97.44252 397.10804 98.02772 394.93384 101.21832"></polygon>
            <polygon id="Fill-153" points="398.16042 94.18458 399.94822 90.82458 400.93522 91.31738 399.11102 94.72498"></polygon>
            <polygon id="Fill-155" points="401.55514 87.37456 402.95654 83.84236 404.01074 84.22596 402.57574 87.81696"></polygon>
            <polygon id="Fill-157" points="404.14192 80.23246 405.11212 76.55746 406.22512 76.81926 405.22692 80.55446"></polygon>
            <polygon id="Fill-159" points="405.87008 72.83318 406.41328 69.07138 407.56688 69.20578 407.00548 73.03198"></polygon>
            <polygon id="Fill-161" points="406.74228 65.28424 406.86128 61.48604 408.04288 61.49024 407.91268 65.35564"></polygon>
            <polygon id="Fill-163" points="406.76692 57.68616 406.45332 53.89916 407.66292 53.76896 407.95832 57.62456"></polygon>
            <polygon id="Fill-165" points="405.92608 50.13652 405.18688 46.41112 406.42448 46.13252 407.15248 49.93352"></polygon>
            <polygon id="Fill-167" points="404.23208 42.73668 403.06168 39.12048 404.31048 38.67948 405.47948 42.37968"></polygon>
            <polygon id="Fill-169" points="401.6782 35.58688 400.0822 32.15268 401.3156 31.53668 402.9228 35.06048"></polygon>
            <polygon id="Fill-171" points="398.27116 28.82418 396.24956 25.62238 397.43536 24.82298 399.48496 28.11718"></polygon>
            <polygon id="Fill-173" points="394.01782 22.5645 391.58742 19.6721 392.69622 18.6809 395.17002 21.6699"></polygon>
            <polygon id="Fill-175" points="388.95934 16.95554 386.13834 14.44534 387.12254 13.25954 390.01214 15.86774"></polygon>
            <polygon id="Fill-177" points="383.14052 12.1478 379.98352 10.0716 380.81792 8.7122 384.05192 10.8724"></polygon>
            <polygon id="Fill-179" points="376.69016 8.21926 373.27836 6.59526 373.94196 5.08606 377.44196 6.78146"></polygon>
            <polygon id="Fill-181" points="369.76534 5.20184 366.17014 4.04264 366.64474 2.40604 370.33794 3.62684"></polygon>
            <polygon id="Fill-183" points="362.50564 3.11962 358.79144 2.43642 359.05884 0.69902 362.88084 1.42982"></polygon>
            <polygon id="Fill-185" points="355.0407 1.9978 351.2719 1.8074 351.3083 0 355.1961 0.2212"></polygon>
            <polygon id="Fill-187" points="347.50072 1.87138 343.74452 2.19338 343.52752 0.34678 347.41392 0.03878"></polygon>
            <polygon id="Fill-189" points="340.0236 2.78054 336.3668 3.63454 335.8684 1.78934 339.6694 0.92834"></polygon>
            <polygon id="Fill-191" points="332.77888 4.76224 329.29428 6.16504 328.49488 4.37304 332.13348 2.93664"></polygon>
            <polygon id="Fill-193" points="325.9361 7.84126 322.7329 9.78586 321.6241 8.10586 324.9813 6.09826"></polygon>
            <polygon id="Fill-195" points="319.6949 11.99534 316.8515 14.43974 315.4487 12.92634 318.4363 10.39234"></polygon>
            <polygon id="Fill-197" points="314.21656 17.10534 311.80296 19.97114 310.13696 18.66914 312.67656 15.69134"></polygon>
            <polygon id="Fill-199" points="309.62134 23.01768 307.67674 26.22228 305.78954 25.16108 307.84054 21.83328"></polygon>
            <polygon id="Fill-201" points="305.96958 29.5617 304.49958 33.0155 302.43458 32.2105 303.98718 28.6279"></polygon>
            <polygon id="Fill-203" points="303.26268 36.5631 302.25468 40.1849 300.05388 39.6375 301.12488 35.8869"></polygon>
            <polygon id="Fill-205" points="301.46886 43.86592 300.90186 47.58992 298.60166 47.29732 299.21486 43.44732"></polygon>
            <polygon id="Fill-207" points="300.54458 51.34038 300.39478 55.10778 298.02458 55.06858 298.20658 51.17518"></polygon>
            <polygon id="Fill-209" points="300.4435 58.87826 300.6885 62.64146 298.2763 62.85286 298.0495 58.96506"></polygon>
            <polygon id="Fill-211" points="301.12432 66.39108 301.75012 70.11088 299.32252 70.57288 298.70232 66.72708"></polygon>
            <polygon id="Fill-213" points="302.56128 73.79428 303.55528 77.43148 301.13608 78.14968 300.13508 74.38368"></polygon>
            <polygon id="Fill-215" points="304.731 81.0124 306.0904 84.5264 303.7104 85.5078 302.3286 81.8608"></polygon>
            <polygon id="Fill-217" points="307.62802 87.96382 309.34722 91.31122 307.04142 92.56562 305.28022 89.07962"></polygon>
            <polygon id="Fill-219" points="311.24562 94.55712 313.32462 97.68892 311.13502 99.22612 308.99302 95.95152"></polygon>
            <polygon id="Fill-221" points="315.5796 100.702 317.975 103.6182 315.9002 105.3878 313.4502 102.3638"></polygon>
            <polygon id="Fill-223" points="320.49598 106.42842 323.13358 109.12902 321.17918 111.10442 318.47998 108.30302"></polygon>
            <polygon id="Fill-225" points="325.87996 111.72014 328.73036 114.19954 326.90756 116.36254 323.99136 113.79214"></polygon>
            <polygon id="Fill-227" points="331.67414 116.5668 334.70654 118.825 333.02234 121.1588 329.92134 118.818"></polygon>
            <polygon id="Fill-229" points="337.81552 120.97876 340.99772 123.02556 339.46612 125.48956 336.20832 123.37976"></polygon>
            <polygon id="Fill-231" points="344.2481 124.9689 347.5591 126.8099 346.1731 129.3845 342.7893 127.4903"></polygon>
            <polygon id="Fill-233" points="350.92554 128.5522 354.34154 130.1986 353.09554 132.8698 349.61094 131.1772"></polygon>
            <polygon id="Fill-235" points="357.80388 131.75148 361.30668 133.21588 360.19088 135.96968 356.62368 134.46608"></polygon>
            <polygon id="Fill-237" points="364.8407 134.5918 368.4149 135.8868 367.4209 138.7134 363.7879 137.3834"></polygon>
            <polygon id="Fill-239" points="372.02256 137.10396 375.64996 138.24216 374.77216 141.13036 371.08736 139.96276"></polygon>
            <polygon id="Fill-241" points="379.30144 139.30658 382.97504 140.29918 382.20364 143.24338 378.47824 142.22278"></polygon>
            <polygon id="Fill-243" points="386.66656 141.22472 390.37516 142.08432 389.70456 145.07472 385.94696 144.19272"></polygon>
            <polygon id="Fill-245" points="394.09986 142.88036 397.84346 143.61676 397.26666 146.65196 393.47686 145.89316"></polygon>
            <polygon id="Fill-247" points="401.5935 144.29408 405.3567 144.92268 404.8569 147.99568 401.0587 147.34888"></polygon>
            <polygon id="Fill-249" points="409.12942 145.50872 412.91082 146.05752 412.47122 149.16272 408.66182 148.59852"></polygon>
            <polygon id="Fill-251" points="416.6995 146.57314 420.4949 147.06034 420.1001 150.19494 416.2823 149.69374"></polygon>
            <polygon id="Fill-253" points="424.29702 147.52332 428.10502 147.96572 427.73822 151.12832 423.91762 150.67192"></polygon>
            <polygon id="Fill-255" points="431.90952 148.39426 435.71612 148.81146 435.36612 151.99926 431.55252 151.56946"></polygon>
            <polygon id="Fill-257" points="439.52608 149.22278 443.33828 149.63298 442.98828 152.84318 439.17748 152.42178"></polygon>
            <polygon id="Fill-259" points="447.1523 150.04584 450.9673 150.46724 450.6005 153.69984 446.7953 153.26864"></polygon>
            <polygon id="Fill-261" points="454.78258 150.90026 458.59898 151.35106 458.19998 154.60466 454.40318 154.14406"></polygon>
            <polygon id="Fill-263" points="462.41832 151.82384 466.23752 152.32364 465.79092 155.59404 461.99832 155.08724"></polygon>
            <polygon id="Fill-265" points="470.05126 152.85326 473.86206 153.41886 473.35106 156.70466 469.57526 156.13206"></polygon>
            <polygon id="Fill-267" points="477.66656 154.02506 481.46476 154.67606 480.87396 157.97166 477.11776 157.31646"></polygon>
            <polygon id="Fill-269" points="485.25582 155.37648 489.03722 156.13108 488.34842 159.43088 484.61742 158.67488"></polygon>
            <polygon id="Fill-271" points="492.80952 156.94322 496.57132 157.81962 495.76632 161.11662 492.06612 160.24302"></polygon>
            <polygon id="Fill-273" points="500.31534 158.7712 504.04914 159.8016 503.11254 163.0552 499.45294 162.0486"></polygon>
            <polygon id="Fill-275" points="507.7583 160.91838 511.4403 162.12238 510.3539 165.31998 506.7461 164.14398"></polygon>
            <polygon id="Fill-277" points="515.09192 163.41486 518.71372 164.79666 517.47472 167.92846 513.93132 166.58026"></polygon>
            <polygon id="Fill-279" points="522.29842 166.2696 525.84602 167.8348 524.45302 170.8896 520.98522 169.3636"></polygon>
            <polygon id="Fill-281" points="529.35302 169.49268 532.81522 171.24688 531.25982 174.21488 527.88022 172.50548"></polygon>
            <polygon id="Fill-283" points="536.2259 173.10006 539.5817 175.05306 537.8611 177.91606 534.5879 176.01626"></polygon>
            <polygon id="Fill-285" points="542.87996 177.10854 546.11396 179.26874 544.21836 182.00854 541.07396 179.91274"></polygon>
            <polygon id="Fill-287" points="549.27432 181.53618 552.35572 183.91198 550.28372 186.50898 547.29052 184.20738"></polygon>
            <polygon id="Fill-289" points="555.35424 186.40006 558.25784 188.99986 556.00244 191.42606 553.18984 188.91446"></polygon>
            <polygon id="Fill-291" points="561.06358 191.71768 563.75298 194.54288 561.31418 196.77168 558.71578 194.04868"></polygon>
            <polygon id="Fill-293" points="566.32184 197.48372 568.76064 200.53712 566.14264 202.53632 563.79204 199.60192"></polygon>
            <polygon id="Fill-295" points="571.06042 203.69972 573.20802 206.96872 570.42062 208.70892 568.35422 205.57292"></polygon>
            <polygon id="Fill-297" points="575.19756 210.3395 577.01756 213.8059 574.08036 215.2591 572.33176 211.9397"></polygon>
            <path d="M578.6606,217.35588 C579.1772,218.55288 579.649,219.76808 580.1208,220.98328 L577.0604,222.12988 C576.6068,220.96648 576.1532,219.80168 575.6562,218.65648 L578.6606,217.35588 Z" id="Fill-299"></path>
            <polygon id="Fill-301" points="581.4032 224.67718 582.512 228.42218 579.369 229.28038 578.2966 225.67678"></polygon>
            <polygon id="Fill-303" points="583.45672 232.20764 584.24492 236.02264 581.05152 236.62184 580.28292 232.93144"></polygon>
            <polygon id="Fill-305" points="584.89368 239.85766 585.41028 243.70766 582.19308 244.09126 581.68488 240.34486"></polygon>
            <polygon id="Fill-307" points="585.81376 247.56452 586.11336 251.42572 582.88916 251.63992 582.59096 247.85712"></polygon>
            <polygon id="Fill-309" points="586.32518 255.28706 586.46238 259.14686 583.24098 259.23506 583.10098 255.43266"></polygon>
            <polygon id="Fill-311" points="586.537 263.00288 586.5636 266.85428 583.3492 266.86128 583.3198 263.04488"></polygon>
            <polygon id="Fill-313" points="586.55072 270.70078 586.51572 274.54798 583.31112 274.51298 583.34192 270.68118"></polygon>
            <polygon id="Fill-315" points="586.46588 278.3851 586.41548 282.2169 583.22068 282.1791 583.26688 278.3431"></polygon>
            <polygon id="Fill-317" points="586.3648 286.04338 586.3354 289.86538 583.191 289.86398 583.1938 286.01958"></polygon>
            <polygon id="Fill-319" points="586.34016 293.68318 586.38916 297.49538 583.29936 297.56818 583.22236 293.71398"></polygon>
            <polygon id="Fill-321" points="586.49598 301.30254 586.67238 305.10774 583.64138 305.28974 583.43418 301.42434"></polygon>
            <polygon id="Fill-323" points="586.92942 308.89866 587.28362 312.68006 584.31702 313.00906 583.92922 309.14926"></polygon>
            <polygon id="Fill-325" points="587.74156 316.4469 588.30296 320.1989 585.41336 320.6833 584.81136 316.8557"></polygon>
            <polygon id="Fill-327" points="588.96922 323.93284 589.73502 327.64704 586.92662 328.27704 586.11882 324.49144"></polygon>
            <polygon id="Fill-329" points="590.60162 331.33968 591.56482 335.00768 588.84602 335.77208 587.83662 332.03828"></polygon>
            <polygon id="Fill-331" points="592.62784 338.64866 593.78424 342.26206 591.15924 343.15106 589.95524 339.47606"></polygon>
            <polygon id="Fill-333" points="595.03542 345.8455 596.37942 349.3959 593.85382 350.3997 592.45942 346.7919"></polygon>
            <polygon id="Fill-335" points="597.81498 352.91186 599.33958 356.39086 596.91758 357.49966 595.33978 353.96886"></polygon>
            <polygon id="Fill-337" points="600.95406 359.83178 602.65366 363.23098 600.33806 364.43778 598.58386 360.98958"></polygon>
            <polygon id="Fill-339" points="604.44034 366.58916 606.31074 369.90156 604.10434 371.19516 602.17794 367.83936"></polygon>
            <polygon id="Fill-341" points="608.2643 373.16804 610.2985 376.38524 608.2027 377.75724 606.1125 374.50224"></polygon>
            <polygon id="Fill-343" points="612.41236 379.55078 614.60476 382.66438 612.62376 384.10638 610.37396 380.95918"></polygon>
            <polygon id="Fill-345" points="616.87486 385.72156 619.22126 388.72176 617.35506 390.22816 614.95126 387.19716"></polygon>
            <polygon id="Fill-347" points="621.63962 391.66274 624.13162 394.54254 622.38442 396.10494 619.83362 393.19854"></polygon>
            <polygon id="Fill-349" points="626.69544 397.35766 629.32884 400.10726 627.69924 401.71866 625.00704 398.94526"></polygon>
            <polygon id="Fill-351" points="632.03014 402.79022 634.79934 405.40262 633.28874 407.05602 630.46074 404.42262"></polygon>
            <polygon id="Fill-353" points="637.63294 407.9446 640.53094 410.4114 639.14214 412.0984 636.18394 409.6148"></polygon>
            <polygon id="Fill-355" points="643.49138 412.80218 646.51118 415.11498 645.24418 416.82858 642.16278 414.50318"></polygon>
            <polygon id="Fill-357" points="649.59174 417.34602 652.72914 419.49642 651.58534 421.22962 648.38634 419.07082"></polygon>
            <polygon id="Fill-359" points="655.9245 421.5603 659.1725 423.5385 658.1505 425.2857 654.8409 423.3019"></polygon>
            <polygon id="Fill-361" points="662.47468 425.42738 665.82908 427.22638 664.92608 428.97918 661.51288 427.17878"></polygon>
            <polygon id="Fill-363" points="669.22996 428.93088 672.68096 430.54088 671.89976 432.29368 668.38856 430.68508"></polygon>
            <polygon id="Fill-365" points="676.17942 432.05484 679.71582 433.47024 679.05362 435.21324 675.45702 433.80484"></polygon>
            <polygon id="Fill-367" points="683.29016 434.78652 686.89656 436.00452 686.34776 437.73072 682.68396 436.52252"></polygon>
            <polygon id="Fill-369" points="690.53488 437.12368 694.20288 438.14428 693.76048 439.84668 690.03928 438.83868"></polygon>
            <polygon id="Fill-371" points="697.8958 439.06856 701.6128 439.89456 701.2712 441.56476 697.5052 440.75556"></polygon>
            <polygon id="Fill-373" points="705.35248 440.62298 709.11008 441.25438 708.86228 442.88678 705.05848 442.27498"></polygon>
            <polygon id="Fill-375" points="712.88154 441.78792 716.66854 442.22472 716.51174 443.81652 712.67994 443.40072"></polygon>
            <polygon id="Fill-377" points="720.46674 442.56646 724.27334 442.81146 724.19914 444.35426 720.35194 444.13446"></polygon>
            <polygon id="Fill-379" points="728.0861 442.95958 731.9039 443.01278 731.9067 444.50518 728.0511 444.47718"></polygon>
            <polygon id="Fill-382" points="735.72044 442.9698 739.53824 442.8354 739.61244 444.2662 735.75964 444.4342"></polygon>
            <polygon id="Fill-384" points="743.35212 442.61364 747.16012 442.29584 747.29592 443.62304 743.45852 443.99124"></polygon>
            <polygon id="Fill-386" points="750.96042 441.88564 754.74882 441.38024 754.93502 442.59964 751.12142 443.15824"></polygon>
            <polygon id="Fill-388" points="758.52518 440.77964 762.28558 440.08524 762.51238 441.19684 758.73238 441.94584"></polygon>
            <polygon id="Fill-390" points="766.02554 439.2976 769.74674 438.4156 770.00434 439.4166 766.27054 440.3532"></polygon>
            <polygon id="Fill-392" points="773.44386 437.44022 777.11466 436.37202 777.39326 437.26382 773.71266 438.38662"></polygon>
            <polygon id="Fill-394" points="780.7583 435.2103 784.3703 433.9559 784.6587 434.7399 781.0425 436.0475"></polygon>
            <polygon id="Fill-396" points="787.94842 432.60854 791.48902 431.16934 791.78022 431.84554 788.23962 433.33794"></polygon>
            <polygon id="Fill-398" points="794.9921 429.63774 798.4543 428.01374 798.7357 428.58494 795.2791 430.26074"></polygon>
            <polygon id="Fill-400" points="801.87044 426.29972 805.24024 424.49372 805.50484 424.96132 802.14344 426.81912"></polygon>
            <polygon id="Fill-402" points="808.56146 422.59672 811.83046 420.61012 812.06426 420.97832 808.81206 423.01392"></polygon>
            <polygon id="Fill-404" points="815.04458 418.53266 818.20018 416.36546 818.39758 416.63986 815.26018 418.85326"></polygon>
        </g>
        <g id="Group" transform="translate(363.075600, 66.472000)">
            <path d="M473.39822,286.24862 C472.40842,286.24862 471.45782,285.77122 470.85722,284.97182 C470.24962,284.16682 470.06202,283.14762 470.34062,282.17462 L473.04402,272.74422 C473.44022,271.36102 474.67782,270.43142 476.11982,270.43142 C477.03402,270.43142 477.87262,270.80942 478.48862,271.49402 L485.03642,278.79922 C485.79802,279.64902 486.04722,280.80542 485.70282,281.89322 C485.35842,282.98102 484.48902,283.78322 483.37602,284.03942 L474.12342,286.16602 C473.88402,286.22062 473.64042,286.24862 473.39822,286.24862" id="Fill-407" fill="#2B3632"></path>
            <path d="M476.12024,269.39052 L476.12024,269.39052 C474.20784,269.39052 472.56844,270.62392 472.04344,272.45792 L469.34004,281.88972 C468.97184,283.17912 469.21964,284.53012 470.02464,285.59972 C470.82404,286.65672 472.08404,287.28952 473.39864,287.28952 C473.71784,287.28952 474.04124,287.25172 474.35624,287.18032 L483.60884,285.05372 C485.08304,284.71492 486.23804,283.65092 486.69584,282.20892 C487.15224,280.76552 486.82324,279.23112 485.81244,278.10412 L479.26184,270.79892 C478.46104,269.90432 477.31584,269.39052 476.12024,269.39052 M476.12024,271.47232 C476.69424,271.47232 477.27384,271.69912 477.71344,272.18912 L484.26124,279.49292 C485.35604,280.71232 484.73864,282.65832 483.14264,283.02512 L473.89004,285.15172 C473.72344,285.18952 473.55824,285.20772 473.39864,285.20772 C472.02104,285.20772 470.93744,283.87212 471.34064,282.46232 L474.04544,273.03192 C474.32964,272.03652 475.21584,271.47232 476.12024,271.47232" id="Fill-409" fill="#F2733D"></path>
            <path d="M9.11355958,72.93734 C7.95435958,72.93734 6.91975958,72.33674 6.34295958,71.33154 L1.46815958,62.81674 C0.896959583,61.81714 0.901159583,60.62714 1.47795958,59.63174 C2.05475958,58.63494 3.08515958,58.03994 4.23315958,58.03994 L14.1717596,58.44314 C15.3127596,58.48934 16.3151596,59.11794 16.8541596,60.12454 C17.3931596,61.12974 17.3623596,62.31414 16.7701596,63.28854 L11.8407596,71.40154 C11.2569596,72.36334 10.2377596,72.93734 9.11355958,72.93734" id="Fill-411" fill="#2B3632"></path>
            <path d="M297.34402,16.90038 C296.45082,16.90038 295.62342,16.53778 295.01162,15.87698 L288.34482,8.67958 C287.56922,7.84098 287.30182,6.68878 287.62942,5.59538 C287.95562,4.50198 288.81242,3.68578 289.91982,3.41138 L299.13742,1.13638 C299.39222,1.07338 299.65262,1.04118 299.91302,1.04118 C300.89162,1.04118 301.83662,1.51018 302.44002,2.29698 C303.04482,3.08938 303.24502,4.09738 302.98322,5.06338 L300.43382,14.53858 C300.06002,15.92878 298.78882,16.90038 297.34402,16.90038" id="Fill-415" fill="#2B3632"></path>
            <path d="M4.23273958,56.99932 L4.23273958,56.99932 C2.70953958,56.99932 1.34313958,57.78752 0.577339583,59.10912 C-0.188460417,60.43072 -0.192660417,62.00992 0.566139583,63.33432 L5.43953958,71.84772 C6.20393958,73.18192 7.57733958,73.97712 9.11313958,73.97712 C10.6041396,73.97712 11.9565396,73.21692 12.7293396,71.94292 L17.6587396,63.82852 C18.4441396,62.53492 18.4861396,60.96552 17.7707396,59.63132 C17.0553396,58.29852 15.7267396,57.46552 14.2133396,57.40252 L4.41053958,57.00212 C4.35173958,57.00072 4.29153958,56.99932 4.23273958,56.99932 M4.23273958,59.08112 C4.26353958,59.08112 4.29573958,59.08112 4.32513958,59.08252 L14.1279396,59.48292 C15.7645396,59.54872 16.7305396,61.34772 15.8793396,62.74772 L10.9513396,70.86212 C10.5313396,71.55372 9.82153958,71.89672 9.11313958,71.89672 C8.38653958,71.89672 7.65853958,71.53412 7.24693958,70.81452 L2.37213958,62.29972 C1.54753958,60.85912 2.59613958,59.08112 4.23273958,59.08112" id="Fill-413" fill="#F2733D"></path>
            <path d="M299.91162,0 C299.56862,0 299.22422,0.042 298.88822,0.126 L289.67202,2.401 C288.20202,2.765 287.06522,3.8472 286.63122,5.2976 C286.19722,6.7466 286.55282,8.2754 287.58042,9.3856 L294.24722,16.5844 C295.05782,17.4594 296.15682,17.941 297.34402,17.941 C299.25782,17.941 300.94202,16.653 301.43902,14.8078 L303.98842,5.334 C304.33422,4.0516 304.06962,2.7132 303.26462,1.6632 C302.46522,0.6216 301.21222,0 299.91162,0 M299.91162,2.0818 C301.27382,2.0818 302.35602,3.388 301.97942,4.7922 L299.42862,14.266 C299.15702,15.2796 298.25962,15.8606 297.34402,15.8606 C296.78122,15.8606 296.21142,15.6408 295.77462,15.169 L289.10782,7.9716 C287.99482,6.7704 288.58002,4.8146 290.17042,4.4226 L299.38662,2.1462 C299.56442,2.1014 299.74082,2.0818 299.91162,2.0818" id="Fill-417" fill="#F2733D"></path>
        </g>
    </g>
</svg>